<?xml version="1.0" standalone="no"?>
<!DOCTYPE svg PUBLIC "-//W3C//DTD SVG 1.1//EN" "http://www.w3.org/Graphics/SVG/1.1/DTD/svg11.dtd" >
<svg xmlns="http://www.w3.org/2000/svg">
<metadata></metadata>
<defs>
<font id="commeregular" horiz-adv-x="1260" >
<font-face units-per-em="2048" ascent="1638" descent="-410" />
<missing-glyph horiz-adv-x="527" />
<glyph unicode="&#xfb01;" horiz-adv-x="1355" d="M67 971h189v-971h182v971h274v111h-274v80q0 135 35 178.5t141 43.5q57 0 105 -8l12 124q-4 1 -21.5 4.5t-55 8t-74.5 4.5h-15q-79 0 -132 -14t-95 -52t-62 -109t-20 -180v-83l-184 -14zM941 1431q0 -60 34.5 -94.5t97.5 -34.5t97.5 34.5t34.5 94.5q0 58 -34.5 91.5 t-97.5 33.5t-97.5 -33.5t-34.5 -91.5zM980 0h182v1082h-182v-1082z" />
<glyph unicode="&#xfb02;" horiz-adv-x="1403" d="M67 971h189v-971h182v971h274v111h-274v80q0 135 35 178.5t141 43.5q57 0 105 -8l12 124q-4 1 -21.5 4.5t-55 8t-74.5 4.5h-15q-79 0 -132 -14t-95 -52t-62 -109t-20 -180v-83l-184 -14zM940 310q0 -98 18 -161.5t57.5 -97.5t90.5 -46.5t128 -12.5h5h71l14 132l-62 4 q-50 4 -74 9.5t-41.5 26t-21.5 53t-4 95.5v1248l-181 -20v-1230z" />
<glyph unicode="&#xfb03;" horiz-adv-x="2116" d="M67 971h189v-971h182v971h274v111h-274v80q0 135 35 178.5t141 43.5q57 0 105 -8l12 124q-4 1 -21.5 4.5t-55 8t-74.5 4.5h-15q-79 0 -132 -14t-95 -52t-62 -109t-20 -180v-83l-184 -14zM828 971h189v-971h182v971h274v111h-274v80q0 135 35 178.5t141 43.5q57 0 105 -8 l12 124q-4 1 -21.5 4.5t-55 8t-74.5 4.5h-15q-79 0 -132 -14t-95 -52t-62 -109t-20 -180v-83l-184 -14zM1702 1431q0 -60 34.5 -94.5t97.5 -34.5t97.5 34.5t34.5 94.5q0 58 -34.5 91.5t-97.5 33.5t-97.5 -33.5t-34.5 -91.5zM1741 0h182v1082h-182v-1082z" />
<glyph unicode="&#xfb04;" horiz-adv-x="2164" d="M67 971h189v-971h182v971h274v111h-274v80q0 135 35 178.5t141 43.5q57 0 105 -8l12 124q-4 1 -21.5 4.5t-55 8t-74.5 4.5h-15q-79 0 -132 -14t-95 -52t-62 -109t-20 -180v-83l-184 -14zM828 971h189v-971h182v971h274v111h-274v80q0 135 35 178.5t141 43.5q57 0 105 -8 l12 124q-4 1 -21.5 4.5t-55 8t-74.5 4.5h-15q-79 0 -132 -14t-95 -52t-62 -109t-20 -180v-83l-184 -14zM1701 310q0 -98 18 -161.5t57.5 -97.5t90.5 -46.5t128 -12.5h5h71l14 132l-62 4q-50 4 -74 9.5t-41.5 26t-21.5 53t-4 95.5v1248l-181 -20v-1230z" />
<glyph horiz-adv-x="0" />
<glyph unicode="&#xd;" horiz-adv-x="682" />
<glyph unicode=" "  horiz-adv-x="527" />
<glyph unicode="&#x09;" horiz-adv-x="527" />
<glyph unicode="&#xa0;" horiz-adv-x="527" />
<glyph unicode="!" horiz-adv-x="715" d="M229 110q0 -50 31 -86.5t88 -36.5t88 36t31 87q0 49 -31 85t-88 36t-88 -36t-31 -85zM253 1334l59 -901h72l53 901v133h-184v-133z" />
<glyph unicode="&#x22;" horiz-adv-x="703" d="M107 1529l63 -533h89l38 533h-190zM407 1529l62 -533h90l38 533h-190z" />
<glyph unicode="#" horiz-adv-x="1159" d="M65 442h195l-92 -460h110l92 460h296l-91 -460h108l92 460h225l15 97h-220l90 449h209l16 95h-206l99 467h-107l-100 -467h-296l99 467h-111l-100 -467h-202l-13 -95h196l-90 -449h-201zM389 539l91 449h296l-90 -449h-297z" />
<glyph unicode="$" horiz-adv-x="1222" d="M112 171q67 -82 195 -136.5t292 -54.5q77 0 146.5 12.5t135.5 42t114.5 74.5t77.5 115.5t29 158.5q0 55 -9 100.5t-23.5 80.5t-41.5 65.5t-54 52.5t-71 45.5t-81.5 40.5t-96.5 40l-205 83q-125 52 -166.5 92.5t-41.5 122.5q0 218 300 218q110 0 201.5 -36.5t148.5 -102.5 h15l104 104q-77 88 -197.5 137.5t-263.5 49.5q-83 0 -153 -11t-136 -38.5t-112 -71t-74 -113t-28 -159.5q0 -50 9 -90.5t29.5 -73t44 -56.5t64 -47.5t77.5 -41t94 -40.5l203 -84q89 -37 135 -60t83 -54t49 -65.5t12 -86.5q0 -130 -86.5 -190t-232.5 -60q-103 0 -200 36 t-166 104h-13zM546 43v-339h122l15 339h-137zM547 1427h143v339h-127z" />
<glyph unicode="%" horiz-adv-x="1623" d="M68 1100q0 -385 302 -385q161 0 236.5 105t75.5 280q0 86 -17 153.5t-52.5 120t-97 81t-145.5 28.5q-82 0 -141.5 -28.5t-94 -81.5t-50.5 -120.5t-16 -152.5zM187 1101q0 64 7.5 111t27 86.5t57 60t93.5 20.5q55 0 92 -19.5t56.5 -59t27.5 -86.5t8 -113 q0 -64 -7.5 -111.5t-27 -88t-57 -61.5t-92.5 -21q-56 0 -93.5 20.5t-57 60.5t-27 87.5t-7.5 113.5zM281 0h142l822 1463h-133zM847 381q0 -84 17 -152t52.5 -121.5t96.5 -82.5t144 -29q161 0 236.5 105t75.5 280q0 86 -17 154t-52.5 120.5t-97 81t-145.5 28.5 q-82 0 -142.5 -29t-96.5 -81.5t-53.5 -121t-17.5 -152.5zM974 382q0 64 7.5 111t27 86.5t57 60t93.5 20.5q55 0 92 -19.5t56.5 -58.5t27.5 -86.5t8 -113.5q0 -64 -7.5 -111.5t-27 -88t-57 -61.5t-92.5 -21q-56 0 -93.5 20.5t-57 60.5t-27 87.5t-7.5 113.5z" />
<glyph unicode="&#x26;" horiz-adv-x="1420" d="M94 393q0 -184 124 -298.5t333 -114.5q259 0 457 191l194 -193l97 102l-198 196q31 40 59 82.5t56.5 93.5t43.5 79.5t44.5 87.5t35.5 70l-112 73q-131 -250 -230 -384l-389 385q45 24 74 41t69.5 43t66.5 48.5t54.5 54t45 63.5t27.5 72.5t11 84.5q0 149 -99.5 230.5 t-257.5 81.5q-166 0 -272 -89t-106 -234q0 -95 40.5 -183t133.5 -184q-76 -38 -127 -74t-93 -83t-62 -107t-20 -135zM263 402q0 101 53.5 167t165.5 126l426 -424q-79 -81 -158 -115t-175 -34q-148 0 -230 74.5t-82 205.5zM376 1162q0 85 64 138t160 53q97 0 147.5 -49 t50.5 -139q0 -44 -16 -83t-39 -68t-62.5 -59.5t-73 -50t-83.5 -46.5q-83 97 -115.5 164.5t-32.5 139.5z" />
<glyph unicode="'" horiz-adv-x="415" d="M103 1503l49 -546h104l28 546h-181z" />
<glyph unicode="(" horiz-adv-x="776" d="M212 677q0 244 67 478t192 436h147v-35q-247 -406 -247 -879q0 -472 247 -880v-33h-147q-125 201 -192 435.5t-67 477.5z" />
<glyph unicode=")" horiz-adv-x="776" d="M164 -203v-33h147q125 201 192 435.5t67 477.5q0 244 -67 478t-192 436h-147v-35q247 -406 247 -879q0 -472 -247 -880z" />
<glyph unicode="*" horiz-adv-x="947" d="M46 1062l341 -77l-232 -311l139 -86l178 337l191 -337q25 16 68 43t69 43q-37 47 -86 111.5t-94.5 125t-56.5 74.5l345 77l-44 157l-339 -141l36 384h-168l34 -384l-336 141z" />
<glyph unicode="+" horiz-adv-x="1141" d="M117 612h358v-384h179v384h355v173h-355v378h-178v-378h-359v-173z" />
<glyph unicode="," horiz-adv-x="629" d="M193 -305h107l118 453v91h-184z" />
<glyph unicode="-" horiz-adv-x="862" d="M172 525h509v141h-509v-141z" />
<glyph unicode="." horiz-adv-x="634" d="M212 112q0 -123 108 -123q106 0 106 123q0 120 -106 120q-108 0 -108 -120z" />
<glyph unicode="/" horiz-adv-x="970" d="M128 -145h151l616 1705h-154z" />
<glyph unicode="0" d="M131 705q0 -344 125.5 -534.5t378.5 -190.5q128 0 223 50.5t154 146t88 227t29 301.5q0 236 -54 407.5t-166 267.5t-274 96q-244 0 -374 -207t-130 -564zM317 710q0 294 84.5 453t233.5 159q308 0 308 -611q0 -302 -78 -439t-230 -137q-318 0 -318 575z" />
<glyph unicode="1" d="M198 0h922v135h-347v1321h-169q-55 -39 -187.5 -90t-207.5 -68v-145q62 9 180 50t198 84v-1152h-389v-135z" />
<glyph unicode="2" d="M146 159l29 -159h863l9 152h-689l439 419q80 76 126 128t81 110t48 116t13 134q0 101 -37.5 182t-102.5 131.5t-148.5 77t-179.5 26.5q-129 0 -246 -48t-192 -134l89 -106h19q55 63 144 99t183 36q59 0 111 -16t93.5 -47.5t66 -84.5t24.5 -121q0 -48 -8.5 -87t-21 -69 t-42 -67t-55.5 -64.5t-76 -76.5z" />
<glyph unicode="3" horiz-adv-x="1246" d="M169 1229l106 -85h20q108 178 314 178h15q118 0 179 -60t61 -167v-13q0 -62 -23 -108t-57 -71.5t-85 -41t-96 -20t-100 -4.5h-75l25 -149h49q204 0 301.5 -65.5t97.5 -231.5q0 -126 -79.5 -191.5t-205.5 -65.5q-91 0 -178.5 37.5t-142.5 125.5h-14l-106 -87 q46 -82 124 -135.5t157 -74t163 -20.5q145 0 252 56t159.5 146.5t52.5 201.5q0 153 -80.5 256.5t-230.5 129.5q135 31 202.5 116t67.5 211q0 174 -110 276.5t-307 102.5q-45 0 -90.5 -6t-100.5 -22.5t-102 -43t-91 -71.5t-72 -104z" />
<glyph unicode="4" d="M134 518l47 -146h596v-372h183v372h161l12 146h-173v938h-199zM316 517l461 717v-717h-461z" />
<glyph unicode="5" d="M180 197q52 -86 171 -151.5t276 -65.5q124 0 223.5 42t160.5 112t93 157t32 181q0 71 -17.5 138t-54 126.5t-88.5 104t-124.5 70.5t-157.5 26q-155 0 -267 -101l46 475h554l19 145h-745l-46 -759l148 -24q95 125 262 125q86 0 151 -47.5t96 -120.5t31 -158 q0 -139 -82.5 -238t-235.5 -99q-108 0 -185.5 40.5t-138.5 124.5h-15z" />
<glyph unicode="6" d="M170 450q0 -94 32.5 -178.5t92.5 -149.5t152.5 -103.5t203.5 -38.5q215 0 346 133t131 332t-118 323t-293 124q-152 0 -273 -104q157 216 473 646v22h-194l-340 -465q-112 -152 -162.5 -271t-50.5 -270zM348 440q0 84 29 147.5t76 98t97.5 51.5t102.5 17q139 0 217.5 -86 t78.5 -223q0 -135 -80.5 -228t-220.5 -93t-220 91.5t-80 224.5z" />
<glyph unicode="7" d="M170 1456l19 -148h692l-537 -1308h186l545 1323v133h-905z" />
<glyph unicode="8" d="M151 366q0 -95 37.5 -169.5t103.5 -121.5t151.5 -71t186.5 -24q136 0 242 41.5t171 130t65 214.5q0 142 -79.5 248.5t-215.5 151.5q264 99 264 349q0 171 -123 266t-323 95q-201 0 -325.5 -95.5t-124.5 -265.5q0 -130 74 -220t196 -131q-300 -105 -300 -398zM326 381 q0 126 83 205t221 111q137 -31 219 -112t82 -203q0 -133 -74 -197.5t-227 -64.5q-149 0 -226.5 66.5t-77.5 194.5zM359 1117q0 104 74 164t197 60q124 0 196.5 -59.5t72.5 -164.5q0 -234 -269 -297q-271 64 -271 297z" />
<glyph unicode="9" d="M174 1015q0 -200 123 -325.5t304 -125.5q127 0 237 72q-71 -93 -150.5 -194t-183 -229.5t-152.5 -190.5v-22h199l364 469q77 99 122.5 172t76 167.5t30.5 197.5q0 94 -32.5 178.5t-92.5 149.5t-152.5 103.5t-204.5 38.5q-216 0 -352 -131.5t-136 -329.5zM354 1016 q0 134 84 225.5t225 91.5t222.5 -91.5t81.5 -224.5q0 -68 -20.5 -123.5t-52.5 -90t-75 -58.5t-85 -33.5t-84 -9.5q-142 0 -219 87.5t-77 226.5z" />
<glyph unicode=":" horiz-adv-x="658" d="M200 116q0 -53 33.5 -89.5t92.5 -36.5t90.5 36.5t31.5 89.5t-31.5 90t-90.5 37q-60 0 -93 -37.5t-33 -89.5zM200 959q0 -53 33.5 -89.5t92.5 -36.5t90.5 36.5t31.5 89.5t-31.5 90t-90.5 37q-60 0 -93 -37.5t-33 -89.5z" />
<glyph unicode=";" horiz-adv-x="715" d="M247 958q0 -53 33.5 -89.5t92.5 -36.5t90.5 36.5t31.5 89.5t-31.5 90t-90.5 37q-60 0 -93 -37.5t-33 -89.5zM248 -305h107l117 453v91h-184z" />
<glyph unicode="&#x3c;" horiz-adv-x="1107" d="M78 597l931 -457v155l-732 353l732 380v152l-931 -490v-93z" />
<glyph unicode="=" horiz-adv-x="1070" d="M128 416h820v154h-820v-154zM128 804h820v153h-820v-153z" />
<glyph unicode="&#x3e;" horiz-adv-x="1107" d="M92 145l932 450v94l-930 496v-152l723 -385l-725 -348v-155z" />
<glyph unicode="?" horiz-adv-x="923" d="M116 1385l38 -137q129 86 243 86q94 0 144 -53t50 -157q0 -58 -25 -122t-61 -125t-73.5 -126.5t-66 -149.5t-34.5 -170l83 -2q29 97 77.5 180.5t93.5 138.5t87 111t67.5 125.5t25.5 154.5q0 89 -28 157t-77 108t-109.5 60t-131.5 20q-175 0 -303 -99zM251 105 q0 -50 31 -84.5t89 -34.5q57 0 87 34t30 85q0 49 -30 83t-87 34t-88.5 -34t-31.5 -83z" />
<glyph unicode="@" horiz-adv-x="1940" d="M147 615q0 -248 101.5 -432.5t281.5 -281t416 -96.5q147 0 284.5 36t232.5 102l-44 109q-184 -117 -470 -117q-153 0 -276 49.5t-204 139t-124 213.5t-43 274q0 210 84.5 379t246.5 269t373 100q156 0 278.5 -46.5t199.5 -128t116.5 -189t39.5 -234.5q0 -193 -72 -303.5 t-166 -110.5q-54 0 -91 40t-37 101q0 57 9 132.5t28.5 201.5t27.5 186q-64 33 -153.5 54t-165.5 21q-104 0 -189.5 -44t-139 -117t-82.5 -163t-29 -186q0 -155 80.5 -256t221.5 -101q97 0 169 62.5t113 157.5q13 -59 56 -97.5t102.5 -69t79.5 -48.5q67 0 132.5 34.5 t120 98.5t88.5 168t34 231q0 220 -101 388t-274 256.5t-389 88.5q-246 0 -444.5 -113t-310 -312t-111.5 -446zM729 580q0 169 86 280t221 111q51 0 135 -19l-42 -256q-10 -67 -21.5 -116.5t-30 -97.5t-42 -78t-58 -48.5t-78.5 -18.5q-170 0 -170 243z" />
<glyph unicode="A" horiz-adv-x="1419" d="M63 0h192l167 453h573l168 -453h193l-550 1456h-198zM467 588l241 680l242 -680h-483z" />
<glyph unicode="B" horiz-adv-x="1373" d="M203 8q204 -17 354 -17q366 0 525.5 103t159.5 338q0 140 -71.5 230t-228.5 128q248 80 248 308q0 40 -3.5 70.5t-16.5 71t-35.5 70t-65 60t-101.5 50t-147 32t-199 12.5q-183 0 -419 -30v-1426zM397 143v574h260q206 0 299 -67.5t93 -222.5q0 -56 -6.5 -93.5t-33 -78.5 t-74 -65t-134.5 -39.5t-211 -15.5q-81 0 -193 8zM397 851v463q127 13 234 13q142 0 226.5 -27.5t119 -79.5t34.5 -135q0 -57 -18.5 -99.5t-48.5 -68t-76 -40.5t-93 -20.5t-107 -5.5h-271z" />
<glyph unicode="C" horiz-adv-x="1433" d="M152 729q0 -352 176.5 -550.5t472.5 -198.5q126 0 237.5 41t196.5 129.5t110 210.5l-140 51h-16q-27 -121 -132.5 -200t-242.5 -79q-215 0 -339.5 152.5t-124.5 443.5t124 443t340 152q137 0 240.5 -78t130.5 -200h16l140 51q-25 123 -109.5 211t-195 129t-235.5 41 q-296 0 -472.5 -198.5t-176.5 -550.5z" />
<glyph unicode="D" horiz-adv-x="1500" d="M203 10q167 -21 306 -21q155 0 280.5 24.5t216.5 72t157.5 113t106.5 151.5t58.5 183t18.5 212q0 96 -10 175.5t-33.5 154.5t-62.5 133t-98.5 107t-138.5 80.5t-185.5 49t-237.5 17.5q-169 0 -378 -28v-1424zM397 135v1178q111 12 201 12q134 0 232.5 -27t160 -75 t98.5 -123.5t51 -160.5t14 -199q0 -113 -15.5 -201.5t-56 -168t-106.5 -131.5t-171 -82.5t-245 -30.5q-76 0 -163 9z" />
<glyph unicode="E" horiz-adv-x="1309" d="M203 0h963l12 148h-781v532h700v147h-700v483h758l7 146h-959v-1456z" />
<glyph unicode="F" horiz-adv-x="1203" d="M203 0h194v659h651v142h-651v506h763l10 149h-967v-1456z" />
<glyph unicode="G" horiz-adv-x="1478" d="M152 736q0 -169 42 -307t124 -238.5t210.5 -155.5t293.5 -55q277 0 510 93v696h-495l-9 -129l327 -22v-443q-145 -42 -299 -42q-266 0 -386 156t-120 448q0 270 130 428t374 158q125 0 219.5 -43t149.5 -104h17l96 106q-68 87 -197 140.5t-291 53.5q-327 0 -511.5 -199 t-184.5 -541z" />
<glyph unicode="H" horiz-adv-x="1541" d="M207 -1h194v674h739v-674h195v1457h-195v-631h-739v631h-194v-1457z" />
<glyph unicode="I" horiz-adv-x="973" d="M191 -1h581v119h-192v1220h192v118h-581v-118h194v-1220h-194v-119z" />
<glyph unicode="J" horiz-adv-x="797" d="M137 -266l60 -146l89 32q75 27 119 49.5t79 52t50.5 71.5t23 96.5t7.5 139.5v1427h-195v-1426q0 -74 -2 -107.5t-14.5 -63t-32.5 -43t-61 -30.5z" />
<glyph unicode="K" horiz-adv-x="1319" d="M203 0h194v578l158 154l559 -732h218v19l-634 818l596 599v20h-212l-685 -695v695h-194v-1456z" />
<glyph unicode="L" horiz-adv-x="1103" d="M203 0h892l6 146h-704v1310h-194v-1456z" />
<glyph unicode="M" horiz-adv-x="1815" d="M183 -1h183v480l9 724l453 -1030h158l456 1020l8 -711v-483h182v487l-24 970h-225l-474 -1060l-471 1060h-231l-24 -971v-486z" />
<glyph unicode="N" horiz-adv-x="1524" d="M203 0h178v740l-17 454l755 -1194h202v1456h-175v-788l11 -419l-760 1207h-194v-1456z" />
<glyph unicode="O" horiz-adv-x="1620" d="M156 721q0 -350 164.5 -545.5t492.5 -195.5q323 0 487 196.5t164 542.5q0 355 -166.5 556t-483.5 201q-216 0 -365 -92.5t-221 -260.5t-72 -402zM354 720q0 140 26 248.5t80.5 189t143.5 122.5t209 42q454 0 454 -602q0 -586 -456 -586q-457 0 -457 586z" />
<glyph unicode="P" horiz-adv-x="1307" d="M203 0h194v636q100 -9 213 -9q144 0 251 21.5t173.5 58.5t107 94t56 119.5t15.5 142.5q0 137 -54.5 223t-185 131.5t-348.5 45.5q-172 0 -422 -29v-1434zM397 774v539q133 13 240 13q120 0 199.5 -17t122 -53.5t59 -82.5t16.5 -114q0 -59 -9.5 -101.5t-36.5 -81 t-73.5 -62t-122 -37t-181.5 -13.5q-98 0 -214 10z" />
<glyph unicode="Q" horiz-adv-x="1597" d="M156 721q0 -350 164.5 -545.5t492.5 -195.5q323 0 487 196.5t164 542.5q0 355 -166.5 556t-483.5 201q-216 0 -365 -92.5t-221 -260.5t-72 -402zM354 720q0 140 26 248.5t80.5 189t143.5 122.5t209 42q454 0 454 -602q0 -586 -456 -586q-457 0 -457 586zM824 38 q2 -7 166 -238.5t175 -240.5l125 90q-10 8 -150.5 205t-149.5 212z" />
<glyph unicode="R" horiz-adv-x="1353" d="M207 0h194v662l335 1l336 -663h207v20l-349 665q311 78 311 386q0 211 -130.5 302t-444.5 91q-189 0 -459 -30v-1434zM401 796v516q160 14 265 14q121 0 200 -15.5t121.5 -50t58.5 -79.5t16 -114q0 -101 -33 -157.5t-122 -85t-252 -28.5h-254z" />
<glyph unicode="S" horiz-adv-x="1222" d="M112 171q67 -82 195 -136.5t292 -54.5q77 0 146.5 12.5t135.5 42t114.5 74.5t77.5 115.5t29 158.5q0 55 -9 100.5t-23.5 80.5t-41.5 65.5t-54 52.5t-71 45.5t-81.5 40.5t-96.5 40l-205 83q-125 52 -166.5 92.5t-41.5 122.5q0 218 300 218q110 0 201.5 -36.5t148.5 -102.5 h15l104 104q-77 88 -197.5 137.5t-263.5 49.5q-83 0 -153 -11t-136 -38.5t-112 -71t-74 -113t-28 -159.5q0 -50 9 -90.5t29.5 -73t44 -56.5t64 -47.5t77.5 -41t94 -40.5l203 -84q89 -37 135 -60t83 -54t49 -65.5t12 -86.5q0 -130 -86.5 -190t-232.5 -60q-103 0 -200 36 t-166 104h-13z" />
<glyph unicode="T" horiz-adv-x="1149" d="M6 1310h470v-1311h195v1311h472v146h-1137v-146z" />
<glyph unicode="U" horiz-adv-x="1455" d="M170 542q0 -127 32.5 -228.5t98.5 -177t173.5 -116t250.5 -40.5q141 0 249 41.5t174 116.5t99 176t33 225v918h-195v-910q0 -206 -86.5 -309t-273.5 -103q-192 0 -276 102t-84 310v910h-195v-915z" />
<glyph unicode="V" horiz-adv-x="1442" d="M77 1456l547 -1457h179l562 1457h-207q-45 -125 -139.5 -384.5t-167 -461.5t-136.5 -388q-63 188 -133 383.5t-170 471t-138 379.5h-197z" />
<glyph unicode="W" horiz-adv-x="1979" d="M77 1456l387 -1456h184l351 1191l338 -1191h187l378 1456h-188l-286 -1210l-339 1181h-182l-342 -1168l-314 1197h-174z" />
<glyph unicode="X" horiz-adv-x="1291" d="M46 -1h199l387 582l386 -582h218l-486 731l478 726h-208l-371 -574l-382 574h-215l476 -718z" />
<glyph unicode="Y" horiz-adv-x="1364" d="M76 1456l511 -939v-517h194v514l507 942h-194l-411 -772l-423 772h-184z" />
<glyph unicode="Z" horiz-adv-x="1190" d="M92 0h1032l6 146h-816l808 1178l-6 132h-994l2 -145h781l-813 -1178v-133z" />
<glyph unicode="[" horiz-adv-x="823" d="M218 -255h462v129h-279v1474h279v129h-462v-1732z" />
<glyph unicode="\" horiz-adv-x="937" d="M97 1479l537 -1496h142l-537 1496h-142z" />
<glyph unicode="]" horiz-adv-x="965" d="M288 -126v-129h462v1732h-462v-129h280v-1474h-280z" />
<glyph unicode="^" horiz-adv-x="1296" d="M92 297h178l378 873l376 -873h180l-515 1159h-84z" />
<glyph unicode="_" horiz-adv-x="906" d="M0 -134v-129h906v129h-906z" />
<glyph unicode="`" horiz-adv-x="929" d="M97 1586l308 -377h119l-195 377h-232z" />
<glyph unicode="a" horiz-adv-x="1120" d="M113 294q0 -154 94.5 -234t254.5 -80q214 0 342 153l13 -133h152v705q0 107 -30 185.5t-86 125t-129.5 68.5t-167.5 22q-112 0 -219 -26t-186 -76l53 -138q73 50 168.5 76t178.5 26q120 0 178.5 -59.5t58.5 -188.5v-125l-232 3h-12q-431 0 -431 -304zM286 292 q0 97 65.5 143t225.5 46l211 -1v-227q-52 -67 -128.5 -105.5t-169.5 -38.5t-148.5 43.5t-55.5 139.5z" />
<glyph unicode="b" horiz-adv-x="1220" d="M168 0h148l11 115q113 -135 314 -135q218 0 339.5 152.5t121.5 410.5q0 168 -44.5 292t-142 197.5t-240.5 73.5q-241 0 -332 -224l7 227v451l-182 -20v-1540zM343 250v309q0 194 75 302.5t231 108.5q74 0 127 -31t83 -90t43.5 -134t13.5 -173q0 -204 -70.5 -315.5 t-215.5 -111.5q-189 0 -287 135z" />
<glyph unicode="c" horiz-adv-x="1090" d="M118 543q0 -259 133 -411t359 -152q85 0 154 20t114 54.5t74 72.5t48 83l-114 62h-13q-41 -75 -100 -115t-155 -40h-2q-152 0 -231.5 111.5t-79.5 314.5q0 204 80 315t233 111q95 0 154.5 -41t101.5 -117h13l113 65q-98 230 -390 230q-226 0 -359 -152t-133 -411z" />
<glyph unicode="d" horiz-adv-x="1231" d="M118 544q0 -257 121.5 -410.5t344.5 -153.5q85 0 168 35.5t140 102.5l10 -118h157v1560l-188 -20v-387l5 -161q-104 111 -279 111h-8h-6q-216 0 -340.5 -151.5t-124.5 -407.5zM305 547q0 203 75 313t222 110q89 0 161 -32.5t114 -92.5v-615q-94 -115 -274 -115 q-149 0 -223.5 112t-74.5 320z" />
<glyph unicode="e" horiz-adv-x="1143" d="M120 538q0 -127 40 -233t109.5 -176.5t164 -109.5t204.5 -39q216 0 370 107l-42 119h-13q-81 -46 -144.5 -68.5t-147.5 -22.5q-153 0 -248 97.5t-107 296.5h723l3 21q2 22 4 49t2 41q0 226 -112 356t-310 130q-103 0 -193 -38.5t-157.5 -110t-106.5 -179.5t-39 -240z M309 627q14 159 99.5 251.5t216.5 92.5q127 0 191 -89t66 -255h-573z" />
<glyph unicode="f" horiz-adv-x="761" d="M67 971h189v-971h182v971h274v111h-274v80q0 135 35 178.5t141 43.5q57 0 105 -8l12 124q-4 1 -21.5 4.5t-55 8t-74.5 4.5h-15q-79 0 -132 -14t-95 -52t-62 -109t-20 -180v-83l-184 -14z" />
<glyph unicode="g" horiz-adv-x="1206" d="M113 546q0 -263 123.5 -413.5t344.5 -150.5q187 0 293 111l1 -82v-7q0 -192 -79 -270.5t-239 -78.5q-156 0 -289 56h-23l-15 -142q154 -56 329 -56q259 0 373 131t114 408v1030h-155l-8 -110q-109 134 -298 134q-216 0 -344 -151.5t-128 -408.5zM299 547q0 201 75.5 312 t221.5 111q179 0 275 -134v-604q-42 -57 -114 -87t-159 -30q-150 0 -224.5 112t-74.5 320z" />
<glyph unicode="h" horiz-adv-x="1215" d="M167 0h181v596q0 75 16 138.5t51 118t98.5 86t149.5 31.5q114 0 164 -75t50 -234v-661h184v670q0 209 -93.5 322.5t-267.5 113.5q-258 0 -357 -226l6 267v413l-182 -20v-1540z" />
<glyph unicode="i" horiz-adv-x="594" d="M180 1431q0 -60 34.5 -94.5t97.5 -34.5t97.5 34.5t34.5 94.5q0 58 -34.5 91.5t-97.5 33.5t-97.5 -33.5t-34.5 -91.5zM219 0h182v1082h-182v-1082z" />
<glyph unicode="j" horiz-adv-x="587" d="M19 -253l29 -142l62 10q88 14 144 36t95 64.5t55.5 108t16.5 164.5v1094h-182v-1063q0 -47 -1 -71.5t-3.5 -54t-9 -43.5t-17 -30.5t-28 -25t-40 -16.5t-56.5 -16zM187 1431q0 -60 34.5 -94.5t97.5 -34.5t97.5 34.5t34.5 94.5q0 58 -34.5 91.5t-97.5 33.5t-97.5 -33.5 t-34.5 -91.5z" />
<glyph unicode="k" horiz-adv-x="1098" d="M167 0h182v400l121 104l410 -504h195v25l-476 566l444 468v23h-206l-494 -530l6 213v795l-182 -20v-1540z" />
<glyph unicode="l" horiz-adv-x="642" d="M179 310q0 -98 18 -161.5t57.5 -97.5t90.5 -46.5t128 -12.5h5h71l14 132l-62 4q-50 4 -74 9.5t-41.5 26t-21.5 53t-4 95.5v1248l-181 -20v-1230z" />
<glyph unicode="m" horiz-adv-x="1837" d="M164 0h182v638q19 149 92 240.5t191 91.5q109 0 156.5 -85.5t47.5 -274.5v-610h182v596q0 169 89 271.5t199 102.5q61 0 102.5 -27.5t61.5 -77.5t27.5 -102t7.5 -119v-644h181v697q0 199 -89 304t-256 105q-120 0 -212 -63.5t-144 -191.5q-31 121 -112.5 188t-204.5 67 q-110 0 -195.5 -58t-134.5 -178l-19 212h-152v-1082z" />
<glyph unicode="n" horiz-adv-x="1208" d="M164 0h182v612q0 158 78.5 258t236.5 100q116 0 164 -78.5t48 -226.5v-665h181v652q0 454 -355 454q-268 0 -365 -235l-19 211h-151v-1082z" />
<glyph unicode="o" horiz-adv-x="1215" d="M118 542q0 -257 129 -409.5t361 -152.5t360.5 152.5t128.5 409.5q0 261 -127.5 412.5t-361.5 151.5q-235 0 -362.5 -151t-127.5 -413zM305 541q0 198 75.5 313.5t227.5 115.5t227 -115.5t75 -313.5q0 -194 -75 -310t-227 -116t-227.5 115.5t-75.5 310.5z" />
<glyph unicode="p" horiz-adv-x="1222" d="M170 -458h181v391l-5 156q107 -109 300 -109q210 0 334 155t124 405q0 262 -108 414t-321 152q-123 0 -210 -62.5t-126 -184.5l-17 223h-152v-1540zM345 250v325q2 185 76 290t228 105q74 0 127 -31t83.5 -90t44 -134t13.5 -173q0 -205 -70.5 -316t-216.5 -111 q-187 0 -285 135z" />
<glyph unicode="q" horiz-adv-x="1215" d="M118 545q0 -259 122 -412t347 -153q180 0 287 108l-3 -110v-436h181v1540h-153l-8 -119q-108 143 -302 143q-219 0 -345 -153.5t-126 -407.5zM305 545q0 202 74.5 313.5t220.5 111.5q180 0 277 -136v-600q-42 -58 -114 -88.5t-160 -30.5q-149 0 -223.5 110.5t-74.5 319.5 z" />
<glyph unicode="r" horiz-adv-x="783" d="M172 0h181v614q0 146 82 239.5t238 93.5h2l39 -1l14 144q-32 5 -79 5q-213 0 -312 -238l-18 225h-147v-1082z" />
<glyph unicode="s" horiz-adv-x="983" d="M85 151q66 -83 177 -127t243 -44q81 0 149 19.5t121.5 58.5t83.5 104.5t30 151.5q0 50 -10.5 88t-40.5 78t-91.5 75t-155.5 65l-120 38q-107 34 -141.5 66.5t-34.5 89.5q0 155 214 155q165 0 250 -102h10l99 81q-51 72 -142.5 115t-217.5 43q-181 0 -286.5 -78 t-105.5 -213q0 -54 10 -91t39.5 -76t90 -71.5t156.5 -62.5l122 -38q116 -36 152.5 -73.5t36.5 -95.5q0 -98 -56 -146.5t-162 -48.5q-197 0 -311 131h-14z" />
<glyph unicode="t" horiz-adv-x="799" d="M60 971h171v-637q0 -104 12 -164t50.5 -103t107.5 -59t185 -16h100l8 128l-108 4q-50 2 -80 8.5t-50 18t-28.5 38t-11.5 57t-3 87.5v638h288v111h-288v303l-151 -11l-26 -293l-171 -9z" />
<glyph unicode="u" horiz-adv-x="1213" d="M154 404q0 -424 389 -424q214 0 337 155l10 -135h157v1082h-181v-823q-111 -146 -298 -146q-123 0 -177.5 74.5t-54.5 220.5v674h-182v-678z" />
<glyph unicode="v" horiz-adv-x="1081" d="M61 1082l392 -1082h185l386 1082h-183q-97 -290 -293 -870q-77 215 -300 870h-187z" />
<glyph unicode="w" horiz-adv-x="1508" d="M24 1082l296 -1083h163l277 908l278 -908h164l282 1083h-166l-201 -847l-266 847h-190l-250 -844l-216 844h-171z" />
<glyph unicode="x" horiz-adv-x="1058" d="M52 -1h183l284 420l281 -420h202l-369 551l365 532h-183l-270 -402l-269 402h-202l358 -534z" />
<glyph unicode="y" horiz-adv-x="1131" d="M39 1082l450 -1038l-160 -418l156 -40l598 1496h-175l-329 -839l-350 839h-190z" />
<glyph unicode="z" horiz-adv-x="1012" d="M101 0h798l-7 136h-589l586 823v123h-768l5 -130h572l-597 -836v-116z" />
<glyph unicode="{" horiz-adv-x="862" d="M192 538q43 0 74 -5.5t53 -12t35.5 -27t21.5 -35.5t11.5 -53.5t4 -64.5t0.5 -84v-178q0 -76 4.5 -125.5t19 -90.5t36.5 -63t63 -37t91.5 -19.5t127.5 -4.5v128q-40 0 -64 2.5t-43.5 13t-28.5 23.5t-15 43t-7.5 61.5t-1.5 87.5v240q0 132 -42 193.5t-156 81.5 q114 20 156 81t42 193v243q0 56 1.5 87.5t7.5 61t15 42.5t28.5 23.5t43.5 13.5t64 3v127q-77 0 -127.5 -4.5t-91.5 -19.5t-63 -37t-36.5 -63t-19 -90.5t-4.5 -125.5v-179v-60.5t-1.5 -51t-4 -45t-7.5 -35.5t-12.5 -30t-18.5 -22t-25.5 -18t-34 -11t-43 -7.5t-53.5 -1.5v-148 z" />
<glyph unicode="|" horiz-adv-x="686" d="M263 -279h151v1755h-151v-1755z" />
<glyph unicode="}" horiz-adv-x="862" d="M126 -134v-128q77 0 127.5 4.5t91.5 19.5t63 37t36.5 63t19 90.5t4.5 125.5v178q0 68 1 97t6.5 70t17.5 56t34.5 32.5t56.5 22t85 4.5v148q-30 0 -53.5 1.5t-43 7.5t-34 11t-25.5 17.5t-18.5 22.5t-12.5 30.5t-8 35.5t-4 44.5t-1.5 51t-0.5 60.5v179q0 76 -4.5 125.5 t-19 90.5t-36.5 63t-63 37t-91.5 19.5t-127.5 4.5v-127q40 0 64.5 -3t43.5 -13.5t28.5 -23.5t15.5 -42.5t7 -61t1 -87.5v-243q0 -132 42 -193t156 -81q-114 -20 -156 -81.5t-42 -193.5v-240q0 -57 -1 -88t-7 -61t-15.5 -43t-28.5 -23.5t-43.5 -13t-64.5 -2.5z" />
<glyph unicode="~" horiz-adv-x="1192" d="M98 591l46 -102q36 69 92.5 114.5t119.5 45.5q50 0 138.5 -36.5t180.5 -73t150 -36.5q175 0 256 200l-51 95q-33 -68 -87.5 -112t-113.5 -44q-13 0 -26 2t-30.5 7t-29.5 9t-35 13.5t-33.5 14t-39 17t-38.5 16.5q-83 37 -132.5 52.5t-104.5 15.5q-92 0 -158.5 -54.5 t-103.5 -143.5z" />
<glyph unicode="&#xa1;" horiz-adv-x="715" d="M229 996q0 -49 31 -85t88 -36t88 36t31 85q0 50 -31 86.5t-88 36.5t-88 -36t-31 -87zM259 -228v-133h184v133l-59 901h-72z" />
<glyph unicode="&#xa2;" horiz-adv-x="1077" d="M118 543q0 -259 133 -411t359 -152q85 0 154 20t114 54.5t74 72.5t48 83l-114 62h-13q-41 -75 -100 -115t-155 -40h-2q-152 0 -231.5 111.5t-79.5 314.5q0 204 80 315t233 111q95 0 154.5 -41t101.5 -117h13l113 65q-98 230 -390 230q-226 0 -359 -152t-133 -411z M538 1060h124l2 328h-114zM539 34v-343h116l18 343h-134z" />
<glyph unicode="&#xa3;" horiz-adv-x="1144" d="M72 681h174v-538l-173 -18l12 -125h930l12 145h-588v536h376v131h-376v145q0 371 251 371q52 0 98 -16t73.5 -34t71.5 -53h17l68 121q-141 137 -350 137q-96 0 -171 -29.5t-121.5 -77.5t-76.5 -117.5t-41.5 -143t-11.5 -159.5v-144h-174v-131z" />
<glyph unicode="&#xa4;" horiz-adv-x="1159" d="M71 1149l181 -179q-79 -109 -79 -249q0 -139 79 -248l-180 -176l67 -71l179 174q110 -92 258 -92q146 0 257 91l181 -174l64 71l-178 177q79 108 79 248q0 136 -80 249l180 176l-65 71l-181 -174q-113 94 -257 94q-148 0 -258 -93l-179 173zM275 721q0 132 83.5 224.5 t217.5 92.5t217.5 -92.5t83.5 -224.5t-83.5 -223.5t-217.5 -91.5t-217.5 91.5t-83.5 223.5z" />
<glyph unicode="&#xa5;" horiz-adv-x="1364" d="M76 1456l511 -939v-517h194v514l507 942h-194l-411 -772l-423 772h-184zM259 256h822v110h-822v-110zM259 509h822v111h-822v-111z" />
<glyph unicode="&#xa6;" horiz-adv-x="663" d="M267 -225h133v756h-133v-756zM267 819h133v752h-133v-752z" />
<glyph unicode="&#xa7;" horiz-adv-x="1074" d="M166 1189q0 -130 90 -201q-89 -80 -89 -204q0 -102 54 -167t196 -112q130 -43 198 -78t89 -64.5t21 -71.5q-1 -84 -51.5 -130t-141.5 -46h-9q-148 0 -335 91v-147q163 -79 328 -79q77 0 141.5 17.5t116 54t80.5 98t29 143.5q0 134 -71 205q71 79 71 201t-58 190t-225 122 q-123 40 -178 65.5t-73 50.5t-18 69q0 74 48 112.5t158 38.5q127 0 265 -69l41 128q-151 77 -324 77q-166 0 -259.5 -79t-93.5 -215zM325 794q0 88 64 124q11 -6 147 -51q110 -35 152.5 -76t42.5 -99q0 -76 -40 -119q-54 24 -196 67q-105 35 -137.5 64t-32.5 90z" />
<glyph unicode="&#xa8;" horiz-adv-x="935" d="M132 1399q0 -48 27.5 -78.5t79.5 -30.5t79 30.5t27 78.5t-27 78.5t-79 30.5q-53 0 -80 -30.5t-27 -78.5zM566 1399q0 -48 27.5 -78.5t80.5 -30.5q52 0 79 30.5t27 78.5t-27 78.5t-79 30.5q-54 0 -81 -30.5t-27 -78.5z" />
<glyph unicode="&#xa9;" horiz-adv-x="1712" d="M10 727q0 -176 64 -321t170.5 -237t240.5 -142t280 -50q117 0 228.5 31t209 94t171.5 150.5t116.5 210t42.5 264.5q0 177 -65.5 322.5t-174 237.5t-245 142t-283.5 50q-116 0 -225.5 -30.5t-205.5 -93.5t-168.5 -151.5t-114 -211t-41.5 -265.5zM114 727q0 155 54.5 282 t146 208t207.5 125t243 44q128 0 244.5 -44t209 -125t147.5 -208t55 -282q0 -124 -36 -231t-98.5 -184.5t-145.5 -133t-179 -83t-197 -27.5t-196 27.5t-177.5 82.5t-144.5 132.5t-97.5 185t-35.5 231.5zM308 726q0 -107 38.5 -199.5t103.5 -155.5t152 -99t183 -36 q155 0 284 81l-36 88q-114 -70 -243 -70q-152 0 -253 108t-101 287q0 169 100.5 277t246.5 108q131 0 239 -76l44 90q-132 87 -288 87q-95 0 -181 -37t-150 -101t-101.5 -156t-37.5 -196z" />
<glyph unicode="&#xaa;" horiz-adv-x="1120" d="M97 253q0 -133 81.5 -201.5t218.5 -68.5q184 0 294 131l12 -114h130v606q0 92 -25.5 159.5t-74 107.5t-111.5 59t-144 19q-96 0 -188 -22.5t-160 -65.5l45 -118q63 43 145 65t154 22q103 0 153.5 -51t50.5 -162v-107l-200 2h-10q-371 0 -371 -261zM246 251 q0 84 56.5 123.5t193.5 39.5l182 -1v-195q-45 -58 -111 -91t-146 -33t-127.5 37.5t-47.5 119.5z" />
<glyph unicode="&#xab;" horiz-adv-x="999" d="M82 551l287 -405h160l-274 408l281 405h-163zM442 551l287 -405h160l-275 408l281 405h-163z" />
<glyph unicode="&#xac;" horiz-adv-x="1244" d="M104 672h831v-419h129v556h-960v-137z" />
<glyph unicode="&#xad;" horiz-adv-x="880" d="M105 494h669v143h-669v-143z" />
<glyph unicode="&#xae;" horiz-adv-x="1851" d="M173 728q0 -176 63.5 -321.5t169 -237.5t237.5 -142t275 -50q95 0 186.5 22t175 64t154 107t122.5 146.5t81 187t29 224.5t-29 224.5t-81 187t-122.5 146.5t-154 107t-175 64t-186.5 22q-143 0 -275 -50t-237.5 -142t-169 -237.5t-63.5 -321.5zM283 728q0 124 34.5 231.5 t95 185t141 133t173 83t191.5 27.5q124 0 238.5 -44.5t204.5 -126t143.5 -208.5t53.5 -281q0 -155 -53.5 -282t-143.5 -208.5t-204.5 -125.5t-238.5 -44t-237.5 44t-202.5 125.5t-142 208.5t-53 282zM628 295h116v425h201l210 -425h130q-210 418 -225 438q191 25 191 237 q0 126 -72 181.5t-241 55.5h-310v-912zM745 818v288h175q127 0 172.5 -26t45.5 -115q0 -81 -40.5 -114t-144.5 -33h-208z" />
<glyph unicode="&#xaf;" horiz-adv-x="1144" d="M265 1327h584v100h-584v-100z" />
<glyph unicode="&#xb0;" horiz-adv-x="875" d="M129 1187q0 -128 88.5 -212.5t211.5 -84.5q126 0 214.5 86t88.5 211q0 127 -88.5 209.5t-214.5 82.5q-124 0 -212 -83t-88 -209zM243 1186q0 84 54.5 138t132.5 54q79 0 133.5 -53.5t54.5 -138.5t-54.5 -139.5t-134.5 -54.5q-79 0 -132.5 54t-53.5 140z" />
<glyph unicode="&#xb1;" horiz-adv-x="1136" d="M105 0h930v126h-930v-126zM124 614h370v-392h136v392h364v129h-365v384h-135v-384h-370v-129z" />
<glyph unicode="&#xb2;" horiz-adv-x="785" d="M112 1367l63 -86q84 106 225 106q65 0 107 -42t42 -110q0 -73 -113 -207q-74 -81 -163 -161.5t-121 -112.5v-107h514l9 107h-338q49 47 101.5 95.5t94.5 90.5q72 75 107.5 145.5t35.5 152.5q0 123 -78.5 193t-189.5 70q-192 0 -296 -134z" />
<glyph unicode="&#xb3;" horiz-adv-x="876" d="M168 715q49 -41 120 -63.5t149 -22.5q124 0 208 64t84 182q0 80 -44.5 136t-116.5 73q71 16 110.5 67.5t40.5 125.5q0 111 -75 166t-189 55q-82 0 -157 -24.5t-125 -68.5l49 -82q91 73 216 73q73 0 118 -32.5t45 -96.5q0 -137 -173 -137h-115v-98l114 1h3q87 0 135 -42.5 t48 -112.5q0 -71 -50.5 -109t-128.5 -38q-135 0 -215 77z" />
<glyph unicode="&#xb4;" horiz-adv-x="732" d="M292 1209h119l299 377h-222z" />
<glyph unicode="&#xb5;" horiz-adv-x="1197" d="M154 -288h182v311q84 -43 207 -43q214 0 337 155l10 -135h157v1082h-181v-823q-111 -146 -298 -146q-123 0 -177.5 74.5t-54.5 220.5v674h-182v-1370z" />
<glyph unicode="&#xb6;" horiz-adv-x="1146" d="M131 1111q0 -69 21.5 -129.5t65 -110.5t120.5 -79t178 -29v-968h129v1536h140v-1536h129v1661h-357q-95 0 -170 -20t-122 -52.5t-78 -78t-43.5 -93t-12.5 -101.5z" />
<glyph unicode="&#xb7;" horiz-adv-x="604" d="M207 625q0 -123 108 -123q106 0 106 123q0 120 -106 120q-108 0 -108 -120z" />
<glyph unicode="&#xb8;" horiz-adv-x="685" d="M196 -369q75 -33 158 -33q109 0 180 54t71 145q0 79 -47 121t-122 42q-54 0 -105 -20l1 -52q26 5 55 5q58 0 83 -25.5t25 -64.5q0 -54 -41.5 -84t-105.5 -30q-63 0 -121 27z" />
<glyph unicode="&#xb9;" horiz-adv-x="884" d="M256 1267q25 5 86.5 31.5t90.5 43.5v-601h-171v-112h478v112h-166v746h-112q-26 -22 -93 -55.5t-113 -50.5v-114z" />
<glyph unicode="&#xba;" horiz-adv-x="965" d="M141 1096q0 -170 89.5 -276.5t249.5 -106.5q153 0 246.5 109t93.5 274q0 175 -87.5 281.5t-252.5 106.5q-161 0 -250 -107.5t-89 -280.5zM285 1096q0 131 49.5 202.5t145.5 71.5q99 0 151 -73t52 -204q0 -128 -50.5 -197t-152.5 -69q-96 0 -145.5 70t-49.5 199z" />
<glyph unicode="&#xbb;" horiz-adv-x="999" d="M85 959l280 -405l-275 -408h160l287 406l-289 407h-163zM443 959l280 -405l-274 -408h159l288 406l-290 407h-163z" />
<glyph unicode="&#xbc;" horiz-adv-x="1739" d="M123 1255q5 2 41.5 18t69 31t48.5 25v-618h-149v-117h430v117h-138v768h-115q-46 -42 -187 -104v-120zM376 0h141l915 1479h-139zM993 190h401v-190h131v190h120l-6 110h-113v559h-142l-391 -571v-98zM1136 300l257 386v-386h-257z" />
<glyph unicode="&#xbd;" horiz-adv-x="1771" d="M128 1258q122 52 158 74v-623h-149v-115h433v115h-140v770h-114q-47 -42 -188 -104v-117zM376 0h139l915 1479h-138zM1110 716l75 -82q83 114 205 114q65 0 107.5 -36.5t42.5 -104.5q0 -53 -30 -106t-110 -135l-249 -253l3 -113h511l6 118h-355l177 166q102 96 144 165 t42 165q0 120 -81 189t-205 69q-89 0 -165.5 -42.5t-117.5 -113.5z" />
<glyph unicode="&#xbe;" horiz-adv-x="1749" d="M120 1395l51 -95q102 60 186 60q60 0 95.5 -31t35.5 -89q0 -60 -41.5 -94.5t-114.5 -34.5h-94v-116l96 1q173 0 173 -145q0 -72 -41 -106.5t-109 -34.5q-94 0 -189 58l-47 -101q104 -75 236 -75q120 0 202.5 68t82.5 195q0 73 -43 129t-119 78q49 11 82.5 46t46.5 73 t13 78q0 106 -74 162t-183 56q-140 0 -245 -82zM428 0h141l915 1479h-139zM1036 190h402v-190h131v190h120l-6 110h-113v559h-142l-392 -571v-98zM1180 300l257 386v-386h-257z" />
<glyph unicode="&#xbf;" horiz-adv-x="923" d="M102 55q0 -89 28 -157t77 -108t109.5 -60t131.5 -20q175 0 303 99l-38 137q-129 -86 -243 -86q-94 0 -144 53t-50 157q0 58 25 122t61 125t73.5 126.5t66 149.5t34.5 170l-83 2q-29 -97 -77.5 -180.5t-93.5 -138.5t-87 -111t-67.5 -125.5t-25.5 -154.5zM379 1089 q0 -49 30 -83t87 -34t88.5 34t31.5 83q0 50 -31 84.5t-89 34.5q-57 0 -87 -34t-30 -85z" />
<glyph unicode="&#xc0;" horiz-adv-x="1419" d="M63 0h192l167 453h573l168 -453h193l-550 1456h-198zM329 1976l308 -377h119l-195 377h-232zM467 588l241 680l242 -680h-483z" />
<glyph unicode="&#xc1;" horiz-adv-x="1419" d="M63 0h192l167 453h573l168 -453h193l-550 1456h-198zM467 588l241 680l242 -680h-483zM643 1583h119l299 377h-222z" />
<glyph unicode="&#xc2;" horiz-adv-x="1419" d="M63 0h192l167 453h573l168 -453h193l-550 1456h-198zM408 1625h157l137 229l135 -229h157l-196 347h-193zM467 588l241 680l242 -680h-483z" />
<glyph unicode="&#xc3;" horiz-adv-x="1419" d="M63 0h192l167 453h573l168 -453h193l-550 1456h-198zM385 1684h93q13 99 68 99q30 0 82.5 -24.5t111 -49.5t103.5 -25q71 0 111.5 55.5t40.5 157.5h-96q-12 -87 -61 -87q-24 0 -71 22t-105 44t-110 22q-79 0 -123 -55.5t-44 -158.5zM467 588l241 680l242 -680h-483z" />
<glyph unicode="&#xc4;" horiz-adv-x="1419" d="M63 0h192l167 453h573l168 -453h193l-550 1456h-198zM373 1773q0 -48 27.5 -78.5t79.5 -30.5t79 30.5t27 78.5t-27 78.5t-79 30.5q-53 0 -80 -30.5t-27 -78.5zM467 588l241 680l242 -680h-483zM807 1773q0 -48 27.5 -78.5t80.5 -30.5q52 0 79 30.5t27 78.5t-27 78.5 t-79 30.5q-54 0 -81 -30.5t-27 -78.5z" />
<glyph unicode="&#xc5;" horiz-adv-x="1419" d="M63 0h192l167 453h573l168 -453h193l-550 1456h-198zM467 588l241 680l242 -680h-483zM515 1775q0 -79 54.5 -133t137.5 -54q84 0 139 54.5t55 132.5t-55 132t-139 54t-138 -54t-54 -132zM611 1774q0 42 27 72t69 30t70 -30.5t28 -71.5q0 -43 -28 -73t-70 -30 q-43 0 -69.5 29.5t-26.5 73.5z" />
<glyph unicode="&#xc6;" horiz-adv-x="1606" d="M-94 0h205l243 462h426v-462h773l12 147h-604v542h523v145h-523v477h581l7 145h-866zM421 595l359 696v-696h-359z" />
<glyph unicode="&#xc7;" horiz-adv-x="1433" d="M152 729q0 -352 176.5 -550.5t472.5 -198.5q126 0 237.5 41t196.5 129.5t110 210.5l-140 51h-16q-27 -121 -132.5 -200t-242.5 -79q-215 0 -339.5 152.5t-124.5 443.5t124 443t340 152q137 0 240.5 -78t130.5 -200h16l140 51q-25 123 -109.5 211t-195 129t-235.5 41 q-296 0 -472.5 -198.5t-176.5 -550.5zM585 -379q75 -33 158 -33q109 0 180 54t71 145q0 79 -47 121t-122 42q-54 0 -105 -20l1 -52q26 5 55 5q58 0 83 -25.5t25 -64.5q0 -54 -41.5 -84t-105.5 -30q-63 0 -121 27z" />
<glyph unicode="&#xc8;" horiz-adv-x="1309" d="M203 0h963l12 148h-781v532h700v147h-700v483h758l7 146h-959v-1456zM361 1976l308 -377h119l-195 377h-232z" />
<glyph unicode="&#xc9;" horiz-adv-x="1309" d="M203 0h963l12 148h-781v532h700v147h-700v483h758l7 146h-959v-1456zM675 1583h119l299 377h-222z" />
<glyph unicode="&#xca;" horiz-adv-x="1309" d="M203 0h963l12 148h-781v532h700v147h-700v483h758l7 146h-959v-1456zM440 1625h157l137 229l135 -229h157l-196 347h-193z" />
<glyph unicode="&#xcb;" horiz-adv-x="1309" d="M203 0h963l12 148h-781v532h700v147h-700v483h758l7 146h-959v-1456zM405 1773q0 -48 27.5 -78.5t79.5 -30.5t79 30.5t27 78.5t-27 78.5t-79 30.5q-53 0 -80 -30.5t-27 -78.5zM839 1773q0 -48 27.5 -78.5t80.5 -30.5q52 0 79 30.5t27 78.5t-27 78.5t-79 30.5 q-54 0 -81 -30.5t-27 -78.5z" />
<glyph unicode="&#xcc;" horiz-adv-x="973" d="M106 1976l308 -377h119l-195 377h-232zM191 -1h581v119h-192v1220h192v118h-581v-118h194v-1220h-194v-119z" />
<glyph unicode="&#xcd;" horiz-adv-x="973" d="M191 -1h581v119h-192v1220h192v118h-581v-118h194v-1220h-194v-119zM420 1583h119l299 377h-222z" />
<glyph unicode="&#xce;" horiz-adv-x="973" d="M185 1625h157l137 229l135 -229h157l-196 347h-193zM191 -1h581v119h-192v1220h192v118h-581v-118h194v-1220h-194v-119z" />
<glyph unicode="&#xcf;" horiz-adv-x="973" d="M150 1773q0 -48 27.5 -78.5t79.5 -30.5t79 30.5t27 78.5t-27 78.5t-79 30.5q-53 0 -80 -30.5t-27 -78.5zM191 -1h581v119h-192v1220h192v118h-581v-118h194v-1220h-194v-119zM584 1773q0 -48 27.5 -78.5t80.5 -30.5q52 0 79 30.5t27 78.5t-27 78.5t-79 30.5 q-54 0 -81 -30.5t-27 -78.5z" />
<glyph unicode="&#xd0;" horiz-adv-x="1500" d="M67 685h509v141h-509v-141zM203 10q167 -21 306 -21q155 0 280.5 24.5t216.5 72t157.5 113t106.5 151.5t58.5 183t18.5 212q0 96 -10 175.5t-33.5 154.5t-62.5 133t-98.5 107t-138.5 80.5t-185.5 49t-237.5 17.5q-169 0 -378 -28v-1424zM397 135v1178q111 12 201 12 q134 0 232.5 -27t160 -75t98.5 -123.5t51 -160.5t14 -199q0 -113 -15.5 -201.5t-56 -168t-106.5 -131.5t-171 -82.5t-245 -30.5q-76 0 -163 9z" />
<glyph unicode="&#xd1;" horiz-adv-x="1524" d="M203 0h178v740l-17 454l755 -1194h202v1456h-175v-788l11 -419l-760 1207h-194v-1456zM467 1684h93q13 99 68 99q30 0 82.5 -24.5t111 -49.5t103.5 -25q71 0 111.5 55.5t40.5 157.5h-96q-12 -87 -61 -87q-24 0 -71 22t-105 44t-110 22q-79 0 -123 -55.5t-44 -158.5z" />
<glyph unicode="&#xd2;" horiz-adv-x="1620" d="M156 721q0 -350 164.5 -545.5t492.5 -195.5q323 0 487 196.5t164 542.5q0 355 -166.5 556t-483.5 201q-216 0 -365 -92.5t-221 -260.5t-72 -402zM354 720q0 140 26 248.5t80.5 189t143.5 122.5t209 42q454 0 454 -602q0 -586 -456 -586q-457 0 -457 586zM436 1976 l308 -377h119l-195 377h-232z" />
<glyph unicode="&#xd3;" horiz-adv-x="1620" d="M156 721q0 -350 164.5 -545.5t492.5 -195.5q323 0 487 196.5t164 542.5q0 355 -166.5 556t-483.5 201q-216 0 -365 -92.5t-221 -260.5t-72 -402zM354 720q0 140 26 248.5t80.5 189t143.5 122.5t209 42q454 0 454 -602q0 -586 -456 -586q-457 0 -457 586zM750 1583h119 l299 377h-222z" />
<glyph unicode="&#xd4;" horiz-adv-x="1620" d="M156 721q0 -350 164.5 -545.5t492.5 -195.5q323 0 487 196.5t164 542.5q0 355 -166.5 556t-483.5 201q-216 0 -365 -92.5t-221 -260.5t-72 -402zM354 720q0 140 26 248.5t80.5 189t143.5 122.5t209 42q454 0 454 -602q0 -586 -456 -586q-457 0 -457 586zM515 1625h157 l137 229l135 -229h157l-196 347h-193z" />
<glyph unicode="&#xd5;" horiz-adv-x="1620" d="M156 721q0 -350 164.5 -545.5t492.5 -195.5q323 0 487 196.5t164 542.5q0 355 -166.5 556t-483.5 201q-216 0 -365 -92.5t-221 -260.5t-72 -402zM354 720q0 140 26 248.5t80.5 189t143.5 122.5t209 42q454 0 454 -602q0 -586 -456 -586q-457 0 -457 586zM492 1684h93 q13 99 68 99q30 0 82.5 -24.5t111 -49.5t103.5 -25q71 0 111.5 55.5t40.5 157.5h-96q-12 -87 -61 -87q-24 0 -71 22t-105 44t-110 22q-79 0 -123 -55.5t-44 -158.5z" />
<glyph unicode="&#xd6;" horiz-adv-x="1620" d="M156 721q0 -350 164.5 -545.5t492.5 -195.5q323 0 487 196.5t164 542.5q0 355 -166.5 556t-483.5 201q-216 0 -365 -92.5t-221 -260.5t-72 -402zM354 720q0 140 26 248.5t80.5 189t143.5 122.5t209 42q454 0 454 -602q0 -586 -456 -586q-457 0 -457 586zM480 1773 q0 -48 27.5 -78.5t79.5 -30.5t79 30.5t27 78.5t-27 78.5t-79 30.5q-53 0 -80 -30.5t-27 -78.5zM914 1773q0 -48 27.5 -78.5t80.5 -30.5q52 0 79 30.5t27 78.5t-27 78.5t-79 30.5q-54 0 -81 -30.5t-27 -78.5z" />
<glyph unicode="&#xd7;" horiz-adv-x="994" d="M104 337l96 -99l293 313l291 -313l93 102q-262 286 -288 313l285 306l-99 101l-282 -305l-284 308l-96 -101l284 -309z" />
<glyph unicode="&#xd8;" horiz-adv-x="1620" d="M156 721q0 -258 90 -434.5t270 -252.5l-94 -249l100 -36l96 252q88 -21 195 -21q323 0 487 196.5t164 542.5q0 243 -79 417t-234 261l96 253l-106 41l-94 -250q-101 35 -233 35q-216 0 -365 -92.5t-221 -260.5t-72 -402zM354 720q0 140 26 248.5t80.5 189t143.5 122.5 t209 42q100 0 178 -29l-416 -1102q-221 122 -221 529zM675 150l414 1086q178 -141 178 -516q0 -586 -456 -586q-78 0 -136 16z" />
<glyph unicode="&#xd9;" horiz-adv-x="1455" d="M170 542q0 -127 32.5 -228.5t98.5 -177t173.5 -116t250.5 -40.5q141 0 249 41.5t174 116.5t99 176t33 225v918h-195v-910q0 -206 -86.5 -309t-273.5 -103q-192 0 -276 102t-84 310v910h-195v-915zM359 1976l308 -377h119l-195 377h-232z" />
<glyph unicode="&#xda;" horiz-adv-x="1455" d="M170 542q0 -127 32.5 -228.5t98.5 -177t173.5 -116t250.5 -40.5q141 0 249 41.5t174 116.5t99 176t33 225v918h-195v-910q0 -206 -86.5 -309t-273.5 -103q-192 0 -276 102t-84 310v910h-195v-915zM673 1583h119l299 377h-222z" />
<glyph unicode="&#xdb;" horiz-adv-x="1455" d="M170 542q0 -127 32.5 -228.5t98.5 -177t173.5 -116t250.5 -40.5q141 0 249 41.5t174 116.5t99 176t33 225v918h-195v-910q0 -206 -86.5 -309t-273.5 -103q-192 0 -276 102t-84 310v910h-195v-915zM438 1625h157l137 229l135 -229h157l-196 347h-193z" />
<glyph unicode="&#xdc;" horiz-adv-x="1455" d="M170 542q0 -127 32.5 -228.5t98.5 -177t173.5 -116t250.5 -40.5q141 0 249 41.5t174 116.5t99 176t33 225v918h-195v-910q0 -206 -86.5 -309t-273.5 -103q-192 0 -276 102t-84 310v910h-195v-915zM403 1773q0 -48 27.5 -78.5t79.5 -30.5t79 30.5t27 78.5t-27 78.5 t-79 30.5q-53 0 -80 -30.5t-27 -78.5zM837 1773q0 -48 27.5 -78.5t80.5 -30.5q52 0 79 30.5t27 78.5t-27 78.5t-79 30.5q-54 0 -81 -30.5t-27 -78.5z" />
<glyph unicode="&#xdd;" horiz-adv-x="1364" d="M76 1456l511 -939v-517h194v514l507 942h-194l-411 -772l-423 772h-184zM620 1583h119l299 377h-222z" />
<glyph unicode="&#xde;" horiz-adv-x="1215" d="M190 0h195v449h182q259 0 370.5 94.5t111.5 291.5q0 187 -123.5 266t-359.5 79h-181v313h-195v-1493zM385 590v451h182q150 0 219.5 -45.5t69.5 -164.5q0 -137 -64 -189t-233 -52h-174z" />
<glyph unicode="&#xdf;" horiz-adv-x="1283" d="M165 1h181v1078q0 174 70.5 252.5t210.5 78.5q97 0 148.5 -48t51.5 -130q0 -56 -20.5 -106t-50.5 -86.5t-59.5 -71.5t-50 -77.5t-20.5 -88.5q0 -40 20.5 -79t53.5 -71.5t73 -65t80 -65.5t73 -67t53.5 -75t20.5 -84q0 -74 -44 -122.5t-131 -48.5q-73 0 -147.5 20.5 t-122.5 46.5l-46 -134q65 -32 160 -54.5t183 -22.5q154 0 241 85t87 232q0 71 -29 135t-72 108.5t-94 87t-94 72t-72 61t-29 57.5q0 24 21.5 55.5t52 67t61.5 76.5t52.5 98t21.5 117q0 145 -103.5 232.5t-274.5 87.5q-221 0 -338.5 -124.5t-117.5 -347.5v-1079z" />
<glyph unicode="&#xe0;" horiz-adv-x="1120" d="M113 294q0 -154 94.5 -234t254.5 -80q214 0 342 153l13 -133h152v705q0 107 -30 185.5t-86 125t-129.5 68.5t-167.5 22q-112 0 -219 -26t-186 -76l53 -138q73 50 168.5 76t178.5 26q120 0 178.5 -59.5t58.5 -188.5v-125l-232 3h-12q-431 0 -431 -304zM185 1603l308 -377 h119l-195 377h-232zM286 292q0 97 65.5 143t225.5 46l211 -1v-227q-52 -67 -128.5 -105.5t-169.5 -38.5t-148.5 43.5t-55.5 139.5z" />
<glyph unicode="&#xe1;" horiz-adv-x="1120" d="M113 294q0 -154 94.5 -234t254.5 -80q214 0 342 153l13 -133h152v705q0 107 -30 185.5t-86 125t-129.5 68.5t-167.5 22q-112 0 -219 -26t-186 -76l53 -138q73 50 168.5 76t178.5 26q120 0 178.5 -59.5t58.5 -188.5v-125l-232 3h-12q-431 0 -431 -304zM286 292 q0 97 65.5 143t225.5 46l211 -1v-227q-52 -67 -128.5 -105.5t-169.5 -38.5t-148.5 43.5t-55.5 139.5zM499 1210h119l299 377h-222z" />
<glyph unicode="&#xe2;" horiz-adv-x="1120" d="M113 294q0 -154 94.5 -234t254.5 -80q214 0 342 153l13 -133h152v705q0 107 -30 185.5t-86 125t-129.5 68.5t-167.5 22q-112 0 -219 -26t-186 -76l53 -138q73 50 168.5 76t178.5 26q120 0 178.5 -59.5t58.5 -188.5v-125l-232 3h-12q-431 0 -431 -304zM264 1252h157 l137 229l135 -229h157l-196 347h-193zM286 292q0 97 65.5 143t225.5 46l211 -1v-227q-52 -67 -128.5 -105.5t-169.5 -38.5t-148.5 43.5t-55.5 139.5z" />
<glyph unicode="&#xe3;" horiz-adv-x="1120" d="M113 294q0 -154 94.5 -234t254.5 -80q214 0 342 153l13 -133h152v705q0 107 -30 185.5t-86 125t-129.5 68.5t-167.5 22q-112 0 -219 -26t-186 -76l53 -138q73 50 168.5 76t178.5 26q120 0 178.5 -59.5t58.5 -188.5v-125l-232 3h-12q-431 0 -431 -304zM241 1311h93 q13 99 68 99q30 0 82.5 -24.5t111 -49.5t103.5 -25q71 0 111.5 55.5t40.5 157.5h-96q-12 -87 -61 -87q-24 0 -71 22t-105 44t-110 22q-79 0 -123 -55.5t-44 -158.5zM286 292q0 97 65.5 143t225.5 46l211 -1v-227q-52 -67 -128.5 -105.5t-169.5 -38.5t-148.5 43.5 t-55.5 139.5z" />
<glyph unicode="&#xe4;" horiz-adv-x="1120" d="M113 294q0 -154 94.5 -234t254.5 -80q214 0 342 153l13 -133h152v705q0 107 -30 185.5t-86 125t-129.5 68.5t-167.5 22q-112 0 -219 -26t-186 -76l53 -138q73 50 168.5 76t178.5 26q120 0 178.5 -59.5t58.5 -188.5v-125l-232 3h-12q-431 0 -431 -304zM229 1400 q0 -48 27.5 -78.5t79.5 -30.5t79 30.5t27 78.5t-27 78.5t-79 30.5q-53 0 -80 -30.5t-27 -78.5zM286 292q0 97 65.5 143t225.5 46l211 -1v-227q-52 -67 -128.5 -105.5t-169.5 -38.5t-148.5 43.5t-55.5 139.5zM663 1400q0 -48 27.5 -78.5t80.5 -30.5q52 0 79 30.5t27 78.5 t-27 78.5t-79 30.5q-54 0 -81 -30.5t-27 -78.5z" />
<glyph unicode="&#xe5;" horiz-adv-x="1120" d="M113 294q0 -154 94.5 -234t254.5 -80q214 0 342 153l13 -133h152v705q0 107 -30 185.5t-86 125t-129.5 68.5t-167.5 22q-112 0 -219 -26t-186 -76l53 -138q73 50 168.5 76t178.5 26q120 0 178.5 -59.5t58.5 -188.5v-125l-232 3h-12q-431 0 -431 -304zM286 292 q0 97 65.5 143t225.5 46l211 -1v-227q-52 -67 -128.5 -105.5t-169.5 -38.5t-148.5 43.5t-55.5 139.5zM371 1402q0 -79 54.5 -133t137.5 -54q84 0 139 54.5t55 132.5t-55 132t-139 54t-138 -54t-54 -132zM467 1401q0 42 27 72t69 30t70 -30.5t28 -71.5q0 -43 -28 -73t-70 -30 q-43 0 -69.5 29.5t-26.5 73.5z" />
<glyph unicode="&#xe6;" horiz-adv-x="1657" d="M62 294q0 -148 87 -227.5t236 -86.5q68 0 130 11.5t121 37t108.5 70t81.5 106.5q56 -110 159 -167.5t242 -57.5q215 0 370 107l-52 120q-81 -46 -145.5 -69t-150.5 -23q-151 0 -240 85.5t-102 280.5q164 -10 234 -10q83 0 146.5 7.5t121.5 27.5t96 53.5t60 88t22 127.5 q0 142 -99 234.5t-276 92.5q-252 0 -363 -203q-33 108 -119.5 155.5t-225.5 47.5q-124 0 -223 -32t-199 -98l69 -115q165 108 357 108q121 0 175.5 -57t54.5 -192v-103q-107 13 -257 13q-419 0 -419 -332zM234 294q0 50 11.5 86t40 67t83 46.5t134.5 15.5q114 0 234 -14 q0 -134 1 -138q-4 -118 -86 -183t-213 -65q-81 0 -143 44.5t-62 140.5zM909 606q11 181 89.5 271.5t217.5 90.5q109 0 159.5 -58t50.5 -153q0 -29 -5.5 -49.5t-25 -42.5t-53 -36t-93 -23t-142.5 -9t-198 9z" />
<glyph unicode="&#xe7;" horiz-adv-x="1090" d="M118 543q0 -259 133 -411t359 -152q85 0 154 20t114 54.5t74 72.5t48 83l-114 62h-13q-41 -75 -100 -115t-155 -40h-2q-152 0 -231.5 111.5t-79.5 314.5q0 204 80 315t233 111q95 0 154.5 -41t101.5 -117h13l113 65q-98 230 -390 230q-226 0 -359 -152t-133 -411z M401 -379q75 -33 158 -33q109 0 180 54t71 145q0 79 -47 121t-122 42q-54 0 -105 -20l1 -52q26 5 55 5q58 0 83 -25.5t25 -64.5q0 -54 -41.5 -84t-105.5 -30q-63 0 -121 27z" />
<glyph unicode="&#xe8;" horiz-adv-x="1143" d="M120 538q0 -127 40 -233t109.5 -176.5t164 -109.5t204.5 -39q216 0 370 107l-42 119h-13q-81 -46 -144.5 -68.5t-147.5 -22.5q-153 0 -248 97.5t-107 296.5h723l3 21q2 22 4 49t2 41q0 226 -112 356t-310 130q-103 0 -193 -38.5t-157.5 -110t-106.5 -179.5t-39 -240z M248 1602l308 -377h119l-195 377h-232zM309 627q14 159 99.5 251.5t216.5 92.5q127 0 191 -89t66 -255h-573z" />
<glyph unicode="&#xe9;" horiz-adv-x="1159" d="M120 538q0 -127 40 -233t109.5 -176.5t164 -109.5t204.5 -39q216 0 370 107l-42 119h-13q-81 -46 -144.5 -68.5t-147.5 -22.5q-153 0 -248 97.5t-107 296.5h723l3 21q2 22 4 49t2 41q0 226 -112 356t-310 130q-103 0 -193 -38.5t-157.5 -110t-106.5 -179.5t-39 -240z M309 627q14 159 99.5 251.5t216.5 92.5q127 0 191 -89t66 -255h-573zM541 1226h119l299 377h-222z" />
<glyph unicode="&#xea;" horiz-adv-x="1159" d="M120 538q0 -127 40 -233t109.5 -176.5t164 -109.5t204.5 -39q216 0 370 107l-42 119h-13q-81 -46 -144.5 -68.5t-147.5 -22.5q-153 0 -248 97.5t-107 296.5h723l3 21q2 22 4 49t2 41q0 226 -112 356t-310 130q-103 0 -193 -38.5t-157.5 -110t-106.5 -179.5t-39 -240z M302 1251h157l137 229l135 -229h157l-196 347h-193zM309 627q14 159 99.5 251.5t216.5 92.5q127 0 191 -89t66 -255h-573z" />
<glyph unicode="&#xeb;" horiz-adv-x="1159" d="M120 538q0 -127 40 -233t109.5 -176.5t164 -109.5t204.5 -39q216 0 370 107l-42 119h-13q-81 -46 -144.5 -68.5t-147.5 -22.5q-153 0 -248 97.5t-107 296.5h723l3 21q2 22 4 49t2 41q0 226 -112 356t-310 130q-103 0 -193 -38.5t-157.5 -110t-106.5 -179.5t-39 -240z M267 1399q0 -48 27.5 -78.5t79.5 -30.5t79 30.5t27 78.5t-27 78.5t-79 30.5q-53 0 -80 -30.5t-27 -78.5zM309 627q14 159 99.5 251.5t216.5 92.5q127 0 191 -89t66 -255h-573zM701 1399q0 -48 27.5 -78.5t80.5 -30.5q52 0 79 30.5t27 78.5t-27 78.5t-79 30.5 q-54 0 -81 -30.5t-27 -78.5z" />
<glyph unicode="&#xec;" horiz-adv-x="527" d="M-97 1602l308 -377h119l-195 377h-232zM183 0h182v1082h-182v-1082z" />
<glyph unicode="&#xed;" horiz-adv-x="535" d="M183 0h182v1082h-182v-1082zM216 1226h119l299 377h-222z" />
<glyph unicode="&#xee;" horiz-adv-x="535" d="M-23 1251h157l137 229l135 -229h157l-196 347h-193zM183 0h182v1082h-182v-1082z" />
<glyph unicode="&#xef;" horiz-adv-x="535" d="M-58 1399q0 -48 27.5 -78.5t79.5 -30.5t79 30.5t27 78.5t-27 78.5t-79 30.5q-53 0 -80 -30.5t-27 -78.5zM183 0h182v1082h-182v-1082zM376 1399q0 -48 27.5 -78.5t80.5 -30.5q52 0 79 30.5t27 78.5t-27 78.5t-79 30.5q-54 0 -81 -30.5t-27 -78.5z" />
<glyph unicode="&#xf0;" horiz-adv-x="1216" d="M101 489q0 -138 56 -252t171 -185.5t271 -71.5q240 0 369 141t129 369q0 211 -86 380q-51 96 -132 202t-219 257l248 95l-50 115l-287 -111l-150 150h-198l214 -205l-218 -86l49 -118l254 101q229 -228 320 -394q-3 2 -17.5 12.5t-19 14t-19 13t-22 13.5t-23 11.5t-26 11 t-27.5 9t-32.5 7.5t-35 4t-39.5 2q-212 0 -346 -134t-134 -351zM269 488q0 157 88.5 257t241.5 100q106 0 185 -50t117.5 -128t38.5 -171q0 -176 -86.5 -277.5t-248.5 -101.5q-82 0 -147.5 31t-106 83.5t-61.5 118t-21 138.5z" />
<glyph unicode="&#xf1;" horiz-adv-x="1208" d="M164 0h182v612q0 158 78.5 258t236.5 100q116 0 164 -78.5t48 -226.5v-665h181v652q0 454 -355 454q-268 0 -365 -235l-19 211h-151v-1082zM375 1310h93q13 99 68 99q30 0 82.5 -24.5t111 -49.5t103.5 -25q71 0 111.5 55.5t40.5 157.5h-96q-12 -87 -61 -87q-24 0 -71 22 t-105 44t-110 22q-79 0 -123 -55.5t-44 -158.5z" />
<glyph unicode="&#xf2;" horiz-adv-x="1226" d="M118 542q0 -257 129 -409.5t361 -152.5t360.5 152.5t128.5 409.5q0 261 -127.5 412.5t-361.5 151.5q-235 0 -362.5 -151t-127.5 -413zM239 1603l308 -377h119l-195 377h-232zM305 541q0 198 75.5 313.5t227.5 115.5t227 -115.5t75 -313.5q0 -194 -75 -310t-227 -116 t-227.5 115.5t-75.5 310.5z" />
<glyph unicode="&#xf3;" horiz-adv-x="1226" d="M118 542q0 -257 129 -409.5t361 -152.5t360.5 152.5t128.5 409.5q0 261 -127.5 412.5t-361.5 151.5q-235 0 -362.5 -151t-127.5 -413zM305 541q0 198 75.5 313.5t227.5 115.5t227 -115.5t75 -313.5q0 -194 -75 -310t-227 -116t-227.5 115.5t-75.5 310.5zM556 1226h119 l299 377h-222z" />
<glyph unicode="&#xf4;" horiz-adv-x="1226" d="M118 542q0 -257 129 -409.5t361 -152.5t360.5 152.5t128.5 409.5q0 261 -127.5 412.5t-361.5 151.5q-235 0 -362.5 -151t-127.5 -413zM305 541q0 198 75.5 313.5t227.5 115.5t227 -115.5t75 -313.5q0 -194 -75 -310t-227 -116t-227.5 115.5t-75.5 310.5zM317 1251h157 l137 229l135 -229h157l-196 347h-193z" />
<glyph unicode="&#xf5;" horiz-adv-x="1215" d="M118 542q0 -257 129 -409.5t361 -152.5t360.5 152.5t128.5 409.5q0 261 -127.5 412.5t-361.5 151.5q-235 0 -362.5 -151t-127.5 -413zM287 1310h93q13 99 68 99q30 0 82.5 -24.5t111 -49.5t103.5 -25q71 0 111.5 55.5t40.5 157.5h-96q-12 -87 -61 -87q-24 0 -71 22 t-105 44t-110 22q-79 0 -123 -55.5t-44 -158.5zM305 541q0 198 75.5 313.5t227.5 115.5t227 -115.5t75 -313.5q0 -194 -75 -310t-227 -116t-227.5 115.5t-75.5 310.5z" />
<glyph unicode="&#xf6;" horiz-adv-x="1226" d="M118 542q0 -257 129 -409.5t361 -152.5t360.5 152.5t128.5 409.5q0 261 -127.5 412.5t-361.5 151.5q-235 0 -362.5 -151t-127.5 -413zM283 1399q0 -48 27.5 -78.5t79.5 -30.5t79 30.5t27 78.5t-27 78.5t-79 30.5q-53 0 -80 -30.5t-27 -78.5zM305 541q0 198 75.5 313.5 t227.5 115.5t227 -115.5t75 -313.5q0 -194 -75 -310t-227 -116t-227.5 115.5t-75.5 310.5zM717 1399q0 -48 27.5 -78.5t80.5 -30.5q52 0 79 30.5t27 78.5t-27 78.5t-79 30.5q-54 0 -81 -30.5t-27 -78.5z" />
<glyph unicode="&#xf7;" horiz-adv-x="1174" d="M103 505h963v145h-963v-145zM485 31h200v214h-200v-214zM485 891h203v210h-203v-210z" />
<glyph unicode="&#xf8;" horiz-adv-x="1205" d="M118 542q0 -257 129 -409.5t361 -152.5t360.5 152.5t128.5 409.5q0 261 -127.5 412.5t-361.5 151.5q-235 0 -362.5 -151t-127.5 -413zM191 -124l66 -39l727 1364l-72 39zM305 541q0 198 75.5 313.5t227.5 115.5t227 -115.5t75 -313.5q0 -194 -75 -310t-227 -116 t-227.5 115.5t-75.5 310.5z" />
<glyph unicode="&#xf9;" horiz-adv-x="1212" d="M154 404q0 -424 389 -424q214 0 337 155l10 -135h157v1082h-181v-823q-111 -146 -298 -146q-123 0 -177.5 74.5t-54.5 220.5v674h-182v-678zM229 1603l308 -377h119l-195 377h-232z" />
<glyph unicode="&#xfa;" horiz-adv-x="1212" d="M154 404q0 -424 389 -424q214 0 337 155l10 -135h157v1082h-181v-823q-111 -146 -298 -146q-123 0 -177.5 74.5t-54.5 220.5v674h-182v-678zM547 1226h119l299 377h-222z" />
<glyph unicode="&#xfb;" horiz-adv-x="1212" d="M154 404q0 -424 389 -424q214 0 337 155l10 -135h157v1082h-181v-823q-111 -146 -298 -146q-123 0 -177.5 74.5t-54.5 220.5v674h-182v-678zM308 1251h157l137 229l135 -229h157l-196 347h-193z" />
<glyph unicode="&#xfc;" horiz-adv-x="1212" d="M154 404q0 -424 389 -424q214 0 337 155l10 -135h157v1082h-181v-823q-111 -146 -298 -146q-123 0 -177.5 74.5t-54.5 220.5v674h-182v-678zM274 1399q0 -48 27.5 -78.5t79.5 -30.5t79 30.5t27 78.5t-27 78.5t-79 30.5q-53 0 -80 -30.5t-27 -78.5zM708 1399 q0 -48 27.5 -78.5t80.5 -30.5q52 0 79 30.5t27 78.5t-27 78.5t-79 30.5q-54 0 -81 -30.5t-27 -78.5z" />
<glyph unicode="&#xfd;" horiz-adv-x="1097" d="M39 1082l450 -1038l-160 -418l156 -40l598 1496h-175l-329 -839l-350 839h-190zM497 1226h119l299 377h-222z" />
<glyph unicode="&#xfe;" horiz-adv-x="1211" d="M111 340v-801h175v801h-175zM115 0h148l11 115q52 -62 132 -98.5t182 -36.5q218 0 339.5 152.5t121.5 410.5q0 168 -44.5 292t-142 197.5t-240.5 73.5q-241 0 -332 -224l7 227v451l-182 -20v-1540zM290 250v309q0 194 75 302.5t231 108.5q74 0 127 -31t83 -90t43.5 -134 t13.5 -173q0 -204 -70.5 -315.5t-215.5 -111.5q-189 0 -287 135z" />
<glyph unicode="&#xff;" horiz-adv-x="1097" d="M39 1082l450 -1038l-160 -418l156 -40l598 1496h-175l-329 -839l-350 839h-190zM223 1399q0 -48 27.5 -78.5t79.5 -30.5t79 30.5t27 78.5t-27 78.5t-79 30.5q-53 0 -80 -30.5t-27 -78.5zM657 1399q0 -48 27.5 -78.5t80.5 -30.5q52 0 79 30.5t27 78.5t-27 78.5t-79 30.5 q-54 0 -81 -30.5t-27 -78.5z" />
<glyph unicode="&#x152;" horiz-adv-x="2355" d="M140 722q0 -231 69.5 -395t217.5 -255.5t366 -91.5q153 0 270 51.5t189 148.5v-180h958l11 147h-782v533h701v146h-701v485h759l8 145h-954v-186q-72 100 -190 153.5t-268 53.5q-321 0 -487.5 -199.5t-166.5 -555.5zM331 721q0 287 112 445t350 158q458 0 458 -603 q0 -588 -459 -588q-461 0 -461 588z" />
<glyph unicode="&#x153;" horiz-adv-x="1909" d="M107 542q0 -256 128.5 -409t358.5 -153q138 0 250.5 74.5t150.5 189.5q48 -116 168.5 -190t255.5 -74q213 1 363 106l-42 120h-12q-75 -45 -140 -68t-150 -23q-74 0 -136 22t-112.5 67.5t-79.5 123.5t-30 181h723q8 58 8 90v22q0 225 -111.5 354.5t-306.5 129.5 q-124 0 -235 -69.5t-161 -183.5q-45 116 -154 184.5t-249 68.5q-234 0 -360.5 -151t-126.5 -412zM287 541q0 198 76.5 314t230.5 116t230 -116t76 -314q0 -194 -76 -310t-230 -116q-104 0 -174.5 56t-101.5 149.5t-31 220.5zM1083 626q14 159 100.5 252.5t217.5 93.5 q128 0 192.5 -89t67.5 -257h-578z" />
<glyph unicode="&#x178;" horiz-adv-x="1364" d="M76 1456l511 -939v-517h194v514l507 942h-194l-411 -772l-423 772h-184zM350 1773q0 -48 27.5 -78.5t79.5 -30.5t79 30.5t27 78.5t-27 78.5t-79 30.5q-53 0 -80 -30.5t-27 -78.5zM784 1773q0 -48 27.5 -78.5t80.5 -30.5q52 0 79 30.5t27 78.5t-27 78.5t-79 30.5 q-54 0 -81 -30.5t-27 -78.5z" />
<glyph unicode="&#x2c6;" horiz-adv-x="886" d="M136 1251h157l137 229l135 -229h157l-196 347h-193z" />
<glyph unicode="&#x2dc;" horiz-adv-x="990" d="M173 1294h93q13 99 68 99q30 0 82.5 -24.5t111 -49.5t103.5 -25q71 0 111.5 55.5t40.5 157.5h-96q-12 -87 -61 -87q-24 0 -71 22t-105 44t-110 22q-79 0 -123 -55.5t-44 -158.5z" />
<glyph unicode="&#x2000;" horiz-adv-x="988" />
<glyph unicode="&#x2001;" horiz-adv-x="1976" />
<glyph unicode="&#x2002;" horiz-adv-x="988" />
<glyph unicode="&#x2003;" horiz-adv-x="1976" />
<glyph unicode="&#x2004;" horiz-adv-x="658" />
<glyph unicode="&#x2005;" horiz-adv-x="494" />
<glyph unicode="&#x2006;" horiz-adv-x="329" />
<glyph unicode="&#x2007;" horiz-adv-x="329" />
<glyph unicode="&#x2008;" horiz-adv-x="247" />
<glyph unicode="&#x2009;" horiz-adv-x="395" />
<glyph unicode="&#x200a;" horiz-adv-x="109" />
<glyph unicode="&#x2010;" horiz-adv-x="862" d="M172 525h509v141h-509v-141z" />
<glyph unicode="&#x2011;" horiz-adv-x="862" d="M172 525h509v141h-509v-141z" />
<glyph unicode="&#x2012;" horiz-adv-x="862" d="M172 525h509v141h-509v-141z" />
<glyph unicode="&#x2013;" horiz-adv-x="1319" d="M72 523h1176v130h-1176v-130z" />
<glyph unicode="&#x2014;" horiz-adv-x="2128" d="M60 515h2008v143h-2008v-143z" />
<glyph unicode="&#x2018;" horiz-adv-x="525" d="M158 1019h193l46 484h-129z" />
<glyph unicode="&#x2019;" horiz-adv-x="525" d="M158 1019h130l109 484h-193z" />
<glyph unicode="&#x201a;" horiz-adv-x="459" d="M99 -313h122l112 474h-180z" />
<glyph unicode="&#x201c;" horiz-adv-x="906" d="M158 1019h193l46 484h-129zM512 1019h193l46 484h-130z" />
<glyph unicode="&#x201d;" horiz-adv-x="906" d="M158 1019h130l109 484h-193zM512 1019h129l110 484h-193z" />
<glyph unicode="&#x201e;" horiz-adv-x="765" d="M109 -313h120l106 474h-175zM419 -313h117l110 474h-179z" />
<glyph unicode="&#x2022;" horiz-adv-x="913" d="M130 736q0 -150 92 -239.5t223 -89.5q133 0 227.5 91t94.5 243q0 151 -92.5 240.5t-223.5 89.5q-133 0 -227 -91.5t-94 -243.5z" />
<glyph unicode="&#x2026;" horiz-adv-x="1481" d="M146 112q0 -123 108 -123q106 0 106 123q0 120 -106 120q-108 0 -108 -120zM672 112q0 -123 108 -123q106 0 106 123q0 120 -106 120q-108 0 -108 -120zM1167 112q0 -123 108 -123q106 0 106 123q0 120 -106 120q-108 0 -108 -120z" />
<glyph unicode="&#x202f;" horiz-adv-x="395" />
<glyph unicode="&#x2039;" horiz-adv-x="629" d="M97 553l283 -403h161l-274 406l282 405h-165z" />
<glyph unicode="&#x203a;" horiz-adv-x="766" d="M150 1000l282 -429l-278 -421h163l292 421l-295 429h-164z" />
<glyph unicode="&#x205f;" horiz-adv-x="494" />
<glyph unicode="&#x20ac;" horiz-adv-x="1391" d="M-53 528h861l7 115h-599v174h599l7 113h-863l-5 -113h168v-174h-168zM77 729q0 -352 176.5 -550.5t472.5 -198.5q126 0 237.5 41t196.5 129.5t110 210.5l-140 51h-16q-27 -121 -132.5 -200t-242.5 -79q-215 0 -339.5 152.5t-124.5 443.5t124 443t340 152q137 0 240.5 -78 t130.5 -200h16l140 51q-25 123 -109.5 211t-195 129t-235.5 41q-296 0 -472.5 -198.5t-176.5 -550.5z" />
<glyph unicode="&#x2122;" horiz-adv-x="2201" d="M81 1338h310v-816h146v816h312v118h-768v-118zM974 522h131l6 745l303 -634h103l304 626l7 -737h129l-17 934h-149l-324 -662l-323 662h-153z" />
<glyph unicode="&#x25fc;" horiz-adv-x="1080" d="M0 0v1080h1080v-1080h-1080z" />
</font>
</defs>
</svg>
