<?xml version="1.0" standalone="no"?>
<!DOCTYPE svg PUBLIC "-//W3C//DTD SVG 1.1//EN" "http://www.w3.org/Graphics/SVG/1.1/DTD/svg11.dtd" >
<svg xmlns="http://www.w3.org/2000/svg">
<metadata></metadata>
<defs>
<font id="commebold" horiz-adv-x="1343" >
<font-face units-per-em="2048" ascent="1638" descent="-410" />
<missing-glyph horiz-adv-x="589" />
<glyph unicode="&#xfb01;" horiz-adv-x="1406" d="M16 906h158v-906h307v906h267v176h-267v77q0 89 38 124t127 35q39 0 127 -11l10 187q-114 26 -241 26q-84 0 -146.5 -16.5t-114.5 -55t-79.5 -111.5t-27.5 -178v-82l-153 -19zM911 1451q0 -80 49 -127t133 -47t132.5 47t48.5 127q0 76 -49 121.5t-132 45.5 q-84 0 -133 -45.5t-49 -121.5zM935 0h307v1082h-307v-1082z" />
<glyph unicode="&#xfb02;" horiz-adv-x="1543" d="M14 906h158v-906h307v906h267v176h-267v77q0 89 38 124t127 35q39 0 127 -11l10 187q-114 26 -241 26q-84 0 -146.5 -16.5t-114.5 -55t-79.5 -111.5t-27.5 -178v-82l-153 -19zM898 346q0 -197 89.5 -276.5t301.5 -79.5q30 0 46 1l88 2l13 197l-120 9q-66 4 -88.5 31.5 t-22.5 93.5v1236l-307 -20v-1194z" />
<glyph unicode="&#xfb03;" horiz-adv-x="2223" d="M16 906h158v-906h307v906h267v176h-267v77q0 89 38 124t127 35q39 0 127 -11l10 187q-114 26 -241 26q-84 0 -146.5 -16.5t-114.5 -55t-79.5 -111.5t-27.5 -178v-82l-153 -19zM833 906h158v-906h307v906h267v176h-267v77q0 89 38 124t127 35q39 0 127 -11l10 187 q-114 26 -241 26q-84 0 -146.5 -16.5t-114.5 -55t-79.5 -111.5t-27.5 -178v-82l-153 -19zM1737 1451q0 -80 49 -127t133 -47t132.5 47t48.5 127q0 76 -49 121.5t-132 45.5q-84 0 -133 -45.5t-49 -121.5zM1761 0h307v1082h-307v-1082z" />
<glyph unicode="&#xfb04;" horiz-adv-x="2360" d="M12 906h158v-906h307v906h267v176h-267v77q0 89 38 124t127 35q39 0 127 -11l10 187q-114 26 -241 26q-84 0 -146.5 -16.5t-114.5 -55t-79.5 -111.5t-27.5 -178v-82l-153 -19zM829 906h158v-906h307v906h267v176h-267v77q0 89 38 124t127 35q39 0 127 -11l10 187 q-114 26 -241 26q-84 0 -146.5 -16.5t-114.5 -55t-79.5 -111.5t-27.5 -178v-82l-153 -19zM1736 346q0 -197 89.5 -276.5t301.5 -79.5q30 0 46 1l88 2l13 197l-120 9q-66 4 -88.5 31.5t-22.5 93.5v1236l-307 -20v-1194z" />
<glyph horiz-adv-x="0" />
<glyph unicode="&#xd;" horiz-adv-x="600" />
<glyph unicode=" "  horiz-adv-x="589" />
<glyph unicode="&#x09;" horiz-adv-x="589" />
<glyph unicode="&#xa0;" horiz-adv-x="589" />
<glyph unicode="!" horiz-adv-x="749" d="M219 144q0 -62 42.5 -107.5t107.5 -45.5q64 0 106 45t42 108q0 64 -41.5 108t-106.5 44q-66 0 -108 -44t-42 -108zM252 1324l68 -867h110l60 867v212h-238v-212z" />
<glyph unicode="&#x22;" horiz-adv-x="818" d="M94 1549l85 -613h137l45 613h-267zM465 1549l86 -613h137l45 613h-268z" />
<glyph unicode="#" horiz-adv-x="1125" d="M64 440h176l-83 -445h155l82 445h241l-82 -445h155l84 445h180l16 122h-173l71 396h169l19 124h-166l77 408h-157l-76 -408h-241l77 408h-156l-76 -408h-198l-17 -124h193l-72 -396h-181zM418 562l71 396h240l-72 -396h-239z" />
<glyph unicode="$" horiz-adv-x="1226" d="M87 216q68 -98 200.5 -167t321.5 -69q110 0 204 26t166 77.5t113 134.5t41 189q0 76 -16.5 136t-43 102t-73.5 78t-95.5 60.5t-120.5 53.5l-181 73q-110 44 -148 79.5t-38 103.5q0 85 58 124.5t148 39.5q73 0 142.5 -38t106.5 -107h21l206 119q-52 100 -180 172.5 t-311 72.5q-106 0 -195 -22.5t-161 -70t-113 -130t-41 -192.5q0 -80 19 -139.5t58.5 -102.5t87 -72.5t118.5 -58.5l218 -89q129 -53 169.5 -95.5t40.5 -118.5q0 -89 -57 -130t-155 -41q-78 0 -158.5 44t-133.5 107h-26zM534 1433h156v337h-153zM540 53v-338h157l-4 338h-153 z" />
<glyph unicode="%" horiz-adv-x="2046" d="M101 1124q0 -177 100 -291.5t277 -114.5q178 0 284 115.5t106 290.5q0 177 -105 290.5t-285 113.5q-175 0 -276 -114t-101 -290zM288 1128q0 105 51 171.5t143 66.5q91 0 140.5 -65.5t49.5 -172.5q0 -106 -49.5 -174.5t-140.5 -68.5q-92 0 -143 68t-51 175zM489 0h216 l840 1508h-208zM1172 380q0 -177 104.5 -292.5t282.5 -115.5q177 0 283.5 116t106.5 292q0 177 -105 289t-285 112q-176 0 -281.5 -113.5t-105.5 -287.5zM1369 382q0 105 51 171.5t143 66.5q91 0 140.5 -65.5t49.5 -172.5q0 -105 -50 -173.5t-140 -68.5q-92 0 -143 67.5 t-51 174.5z" />
<glyph unicode="&#x26;" horiz-adv-x="1420" d="M95 436q0 -221 134.5 -337t364.5 -116q241 0 431 163l166 -179l160 136l-183 197q26 34 51.5 70.5t51.5 79.5t42 70t45 78t39 68l-158 109q-106 -203 -204 -332l-347 373q141 75 235 177t94 217q0 80 -33 141.5t-89 98t-122 54.5t-138 18q-106 0 -195 -37.5t-147 -117.5 t-58 -190q0 -89 50.5 -177t116.5 -156q-50 -31 -87 -57t-81.5 -66t-72.5 -79.5t-47 -93.5t-19 -112zM336 416q0 49 20 96.5t50 82.5t59.5 59.5t54.5 38.5l372 -403q-136 -115 -288 -115q-121 0 -194.5 62.5t-73.5 178.5zM470 1201q0 72 45 108t117 36q158 0 158 -140 q0 -74 -61 -147t-144 -115q-67 78 -91 133t-24 125z" />
<glyph unicode="'" horiz-adv-x="568" d="M130 1539l81 -618h142l42 618h-265z" />
<glyph unicode="(" horiz-adv-x="846" d="M209 657q0 259 78.5 519t197.5 418h218v-38q-268 -342 -268 -899q0 -563 268 -905v-31h-218q-119 158 -197.5 418t-78.5 518z" />
<glyph unicode=")" horiz-adv-x="846" d="M146 -248v-31h218q119 158 197.5 418t78.5 518q0 259 -78.5 519t-197.5 418h-218v-38q268 -342 268 -899q0 -563 -268 -905z" />
<glyph unicode="*" horiz-adv-x="1017" d="M30 1023l344 -79l-239 -318l204 -116l170 334l179 -336q7 5 100 59.5t99 58.5q-10 15 -59 79.5t-108.5 143.5t-71.5 95l347 79l-64 224l-340 -145l34 401h-228l34 -401l-337 145z" />
<glyph unicode="+" horiz-adv-x="1175" d="M107 615h364v-381h228v381h363v223h-363v373h-227v-373h-365v-223z" />
<glyph unicode="," horiz-adv-x="665" d="M187 -336h179l122 453v151h-263z" />
<glyph unicode="-" horiz-adv-x="931" d="M152 453h630v199h-630v-199z" />
<glyph unicode="." horiz-adv-x="704" d="M196 142q0 -73 42 -111.5t110 -38.5t110 38.5t42 111.5q0 74 -42 113.5t-110 39.5t-110 -39.5t-42 -113.5z" />
<glyph unicode="/" horiz-adv-x="1006" d="M79 -172h196l642 1732h-200z" />
<glyph unicode="0" d="M96 722q0 -345 151.5 -543.5t425.5 -198.5q273 0 423.5 198t150.5 544q0 348 -152 551t-422 203t-423.5 -203.5t-153.5 -550.5zM430 723q2 242 67 379t176 137q113 0 176 -133.5t63 -381.5q0 -247 -63 -377.5t-176 -130.5q-114 0 -178.5 130.5t-64.5 376.5z" />
<glyph unicode="1" d="M195 0h1036v216h-332v1240h-283q-66 -49 -190.5 -101t-227.5 -80v-211q73 9 181.5 43t191.5 74v-965h-376v-216z" />
<glyph unicode="2" d="M128 1231l144 -156h24q64 76 159 121.5t192 45.5q96 0 158.5 -56.5t62.5 -154.5q0 -77 -35 -138.5t-119 -143.5l-541 -533l48 -216h916l9 220h-612l355 337q149 141 209.5 247t60.5 223q0 92 -30.5 171.5t-90.5 142.5t-159.5 99t-228.5 36q-162 0 -297.5 -69.5 t-224.5 -175.5z" />
<glyph unicode="3" horiz-adv-x="1231" d="M95 195q45 -76 176.5 -145.5t304.5 -69.5q105 0 198.5 26t168 77t118 134t43.5 189q0 63 -18 119t-56 106t-105 84t-157 44q294 49 294 332q-1 127 -65 215t-173 129t-256 41q-154 0 -277.5 -61t-188.5 -162l144 -148l20 -4q114 136 284 138q205 0 208 -186 q0 -54 -16 -93t-43 -62.5t-70 -37t-89.5 -18.5t-109.5 -5l-97 -1l22 -194h78q69 0 120 -5.5t96 -20t73 -39t44 -64t16 -93.5q0 -99 -59 -152.5t-169 -53.5q-94 0 -175.5 38t-129.5 99h-23z" />
<glyph unicode="4" d="M105 535l27 -196h590v-339h321v339h189l14 210h-203v907h-370zM353 545l369 604v-604h-369z" />
<glyph unicode="5" d="M172 205q148 -225 502 -225q123 0 222.5 40.5t163 110t97 159.5t33.5 191q0 89 -28 171t-82 150t-144 109t-204 41q-144 0 -237 -81l44 373h548l29 212h-823l-58 -797l227 -37q51 123 216 123q102 0 161 -75t59 -179q0 -126 -64.5 -201t-188.5 -75q-93 0 -173.5 37.5 t-128.5 115.5h-19z" />
<glyph unicode="6" d="M142 462q0 -211 143 -346.5t390 -135.5q246 0 389.5 129.5t143.5 337.5q0 110 -37 198t-98.5 141.5t-137.5 81.5t-158 28q-102 0 -193 -50q53 66 115 146.5t106 139.5t114.5 153t107.5 143v28h-338l-375 -534q-88 -124 -130 -227t-42 -233zM450 453q0 126 66 194.5 t161 68.5q103 0 162.5 -71.5t59.5 -189.5q0 -114 -60 -186t-164 -72t-164.5 71.5t-60.5 184.5z" />
<glyph unicode="7" d="M180 1456l12 -226h641l-506 -1230h332l508 1230l-4 226h-983z" />
<glyph unicode="8" d="M141 383q0 -192 143.5 -297.5t390.5 -105.5q245 0 385.5 105t140.5 298q0 144 -66.5 246.5t-184.5 145.5q224 88 224 337q0 173 -138.5 268.5t-362.5 95.5q-146 0 -258.5 -41t-179 -124.5t-66.5 -198.5q0 -130 62.5 -215t172.5 -123q-124 -44 -193.5 -145t-69.5 -246z M462 397q0 110 58.5 187t154.5 105q94 -28 151 -105t57 -186q0 -112 -50 -165t-158 -53q-213 0 -213 217zM472 1099q0 84 55.5 133t147.5 49q91 0 144 -48.5t53 -133.5q0 -94 -51 -164t-146 -103q-97 34 -150 103.5t-53 163.5z" />
<glyph unicode="9" d="M156 1011q0 -110 37.5 -198t100.5 -142t139.5 -82.5t158.5 -28.5q96 0 184 44q-69 -83 -140 -176t-166 -219.5t-136 -180.5v-28h330l385 535q90 123 134 226.5t44 232.5q0 103 -36 190.5t-103.5 152.5t-169 102t-226.5 37q-245 0 -390.5 -129t-145.5 -336zM464 1003 q0 114 61.5 185t166.5 71q104 0 164.5 -71t60.5 -184q0 -127 -67 -195.5t-163 -68.5q-105 0 -164 72t-59 191z" />
<glyph unicode=":" horiz-adv-x="692" d="M192 143q0 -70 44.5 -110t113.5 -40q70 0 114 40t44 110q0 72 -44 114t-114 42t-114 -42t-44 -114zM192 951q0 -70 44.5 -110t113.5 -40q70 0 114 40t44 110q0 72 -44 114t-114 42t-114 -42t-44 -114z" />
<glyph unicode=";" horiz-adv-x="749" d="M217 -336h179l121 453v151h-263zM222 951q0 -71 44.5 -111t114.5 -40t113.5 40.5t43.5 110.5q0 72 -43.5 114t-113.5 42t-114.5 -42t-44.5 -114z" />
<glyph unicode="&#x3c;" horiz-adv-x="1107" d="M62 636l941 -463v224l-645 308l645 334v217l-941 -495v-125z" />
<glyph unicode="=" horiz-adv-x="1209" d="M104 467h985v200h-985v-200zM104 886h985v200h-985v-200z" />
<glyph unicode="&#x3e;" horiz-adv-x="1107" d="M86 175l942 460v126l-941 497v-217l642 -336l-643 -306v-224z" />
<glyph unicode="?" horiz-adv-x="1029" d="M115 1403l71 -212q134 77 247 77q84 0 124.5 -44t40.5 -121q0 -45 -19 -92t-50.5 -97.5t-66.5 -107t-73 -142.5t-64 -181l79 -20q34 64 80 121.5t89.5 99.5t89.5 84t84 83.5t68.5 88.5t47.5 109t17 136q0 110 -56.5 190.5t-145.5 118.5t-197 38q-97 0 -198 -33t-168 -96z M218 130q0 -66 40 -107t109 -41q68 0 106.5 40.5t38.5 107.5q0 66 -38.5 106.5t-106.5 40.5q-69 0 -109 -40.5t-40 -106.5z" />
<glyph unicode="@" horiz-adv-x="2000" d="M150 674q0 -254 106.5 -441t295 -283t436.5 -96q161 0 310 38.5t244 109.5l-58 146q-193 -113 -493 -113q-191 0 -331.5 84t-211 226.5t-70.5 324.5q0 141 46 267.5t130 224t212.5 155t282.5 57.5q121 0 222.5 -29.5t172 -81.5t119.5 -122.5t72 -151t23 -168.5 q0 -188 -62.5 -294t-143.5 -106q-43 0 -69 33.5t-26 90.5t9.5 137t29 205t28.5 194q-63 33 -164.5 59t-195.5 26q-90 0 -169 -30.5t-135.5 -82.5t-97.5 -120.5t-61 -145.5t-20 -156q0 -80 21 -147.5t62 -120t107.5 -82t151.5 -29.5q97 0 172.5 63.5t114.5 167.5 q10 -49 41.5 -86t64.5 -55.5t75 -41.5t61 -40q74 0 146 36t133 102.5t98.5 174.5t37.5 240q0 220 -108 391t-292 262.5t-411 91.5q-193 0 -362 -68.5t-288 -186.5t-187.5 -281.5t-68.5 -347.5zM803 619q0 160 76.5 273.5t200.5 113.5q46 0 115 -13l-39 -242 q-26 -176 -74 -255.5t-142 -79.5q-137 0 -137 203z" />
<glyph unicode="A" horiz-adv-x="1502" d="M56 0h326l129 389h475l134 -389h326l-497 1456h-393zM574 591l178 597l176 -597h-354z" />
<glyph unicode="B" horiz-adv-x="1423" d="M181 16q222 -17 413 -17q171 0 296 18t208.5 51.5t133.5 87.5t71 120.5t21 156.5q0 150 -75 233t-240 118q133 41 203 119t70 185q0 92 -29.5 158.5t-82 109t-137.5 67t-182 34t-229 9.5q-190 0 -441 -18v-1432zM505 218v454h183q167 0 240 -45.5t73 -175.5 q0 -89 -31 -138.5t-112 -74.5t-230 -25q-56 0 -123 5zM505 868v389q60 4 139 4q171 0 238 -43t67 -161q0 -103 -66.5 -146t-187.5 -43h-190z" />
<glyph unicode="C" horiz-adv-x="1545" d="M127 732q0 -360 187.5 -556t521.5 -196q113 0 209.5 26t162.5 68.5t116 99.5t78 114.5t41 118.5l-237 95h-25q-29 -123 -116.5 -209t-223.5 -86q-172 0 -271.5 128t-99.5 397t98.5 393t289.5 124q66 0 122 -26t95 -70t65 -94.5t40 -105.5h24l238 94q-13 61 -42 119 t-80 115t-117.5 99.5t-162 69t-206.5 26.5q-332 0 -519.5 -195.5t-187.5 -548.5z" />
<glyph unicode="D" horiz-adv-x="1538" d="M181 7q174 -18 318 -18q205 0 362 36.5t260.5 101.5t169 162t93 210.5t27.5 254.5q0 150 -27.5 262t-89 199t-162 141.5t-246 82t-342.5 27.5q-162 0 -363 -18v-1441zM505 222v1021q68 4 97 4q90 0 162.5 -13.5t123.5 -36t88.5 -59t60.5 -76t36.5 -93t18 -104.5t4.5 -116 q0 -100 -15 -179t-51 -146t-94 -111.5t-146.5 -69t-204.5 -24.5q-38 0 -80 3z" />
<glyph unicode="E" horiz-adv-x="1345" d="M181 0h1029l7 226h-712v411h647v221h-647v378h677l16 220h-1017v-1456z" />
<glyph unicode="F" horiz-adv-x="1243" d="M181 0h324v610h613v219h-613v398h658l15 229h-997v-1456z" />
<glyph unicode="G" horiz-adv-x="1559" d="M127 730q0 -355 186.5 -552.5t521.5 -197.5q353 0 577 101v725h-574l-9 -206l311 -21v-333q-111 -40 -252 -40q-201 0 -309.5 123.5t-108.5 400.5q0 519 400 519q206 0 317 -202h24l206 124q-65 140 -208.5 222.5t-364.5 82.5q-335 0 -526 -197.5t-191 -548.5z" />
<glyph unicode="H" horiz-adv-x="1578" d="M182 -4h325v640h564v-640h325v1460h-325v-599h-564v599h-325v-1460z" />
<glyph unicode="I" horiz-adv-x="1028" d="M141 -4h742v178h-206v1104h206v178h-742v-178h212v-1104h-212v-178z" />
<glyph unicode="J" horiz-adv-x="811" d="M3 -282l111 -248l143 61q89 38 149.5 72t101.5 78.5t62.5 81t33 103.5t13.5 120t2 155v57v1258h-324v-1251q0 -73 -1 -116.5t-3 -87.5t-8 -68t-13.5 -47t-21.5 -37t-30.5 -25.5t-41.5 -23.5z" />
<glyph unicode="K" horiz-adv-x="1412" d="M181 0h324v542l82 91l467 -633h363v10l-591 796l541 642v8h-356l-506 -601v601h-324v-1456z" />
<glyph unicode="L" horiz-adv-x="1174" d="M181 0h964l16 211h-656v1245h-324v-1456z" />
<glyph unicode="M" horiz-adv-x="1878" d="M162 -4h303v536l9 455l358 -769h207l364 765l8 -448v-539h305v584l-23 876h-332l-418 -872l-419 872h-339l-23 -882v-578z" />
<glyph unicode="N" horiz-adv-x="1603" d="M181 0h308v593l-17 388l629 -981h321v1456h-301v-624l15 -389l-646 1013h-309v-1456z" />
<glyph unicode="O" horiz-adv-x="1649" d="M128 722q0 -354 180.5 -548.5t517.5 -194.5q338 0 516.5 194.5t178.5 549.5q0 356 -180.5 554.5t-514.5 198.5q-336 0 -517 -198.5t-181 -555.5zM472 721q0 246 89.5 382t264.5 136q176 0 263.5 -135.5t87.5 -382.5q0 -243 -87 -374.5t-264 -131.5q-178 0 -266 131.5 t-88 374.5z" />
<glyph unicode="P" horiz-adv-x="1412" d="M181 0h324v538q72 -5 162 -5q190 0 321.5 33.5t206.5 99.5t107.5 153t32.5 205q0 93 -22.5 162t-74 123.5t-137 88.5t-210.5 51.5t-295 17.5q-186 0 -415 -19v-1448zM505 751v501q80 5 131 5q98 0 169 -12t113.5 -32.5t67 -53t33 -67t8.5 -81.5q0 -63 -16 -107.5t-58 -82 t-122 -56.5t-200 -19q-49 0 -126 5z" />
<glyph unicode="Q" horiz-adv-x="1643" d="M128 722q0 -354 180.5 -548.5t517.5 -194.5q338 0 516.5 194.5t178.5 549.5q0 356 -180.5 554.5t-514.5 198.5q-336 0 -517 -198.5t-181 -555.5zM472 721q0 246 89.5 382t264.5 136q176 0 263.5 -135.5t87.5 -382.5q0 -243 -87 -374.5t-264 -131.5q-178 0 -266 131.5 t-88 374.5zM771 72q18 -58 191.5 -283.5t259.5 -296.5l204 167q-79 67 -194.5 212t-174.5 238z" />
<glyph unicode="R" horiz-adv-x="1448" d="M181 0h324v623h217l317 -623h352v17l-346 649q280 85 280 380q0 124 -33 205.5t-109.5 131.5t-191.5 71t-289 21q-195 0 -521 -27v-1448zM505 822v421q129 11 217 11q162 0 234.5 -45t72.5 -160q0 -127 -67.5 -177t-241.5 -50h-215z" />
<glyph unicode="S" horiz-adv-x="1226" d="M87 216q68 -98 200.5 -167t321.5 -69q110 0 204 26t166 77.5t113 134.5t41 189q0 76 -16.5 136t-43 102t-73.5 78t-95.5 60.5t-120.5 53.5l-181 73q-110 44 -148 79.5t-38 103.5q0 85 58 124.5t148 39.5q73 0 142.5 -38t106.5 -107h21l206 119q-52 100 -180 172.5 t-311 72.5q-106 0 -195 -22.5t-161 -70t-113 -130t-41 -192.5q0 -80 19 -139.5t58.5 -102.5t87 -72.5t118.5 -58.5l218 -89q129 -53 169.5 -95.5t40.5 -118.5q0 -89 -57 -130t-155 -41q-78 0 -158.5 44t-133.5 107h-26z" />
<glyph unicode="T" horiz-adv-x="1241" d="M31 1245h427v-1249h324v1249h427v211h-1178v-211z" />
<glyph unicode="U" horiz-adv-x="1506" d="M151 536q0 -263 151.5 -409.5t446.5 -146.5q294 0 449 147.5t155 407.5v921h-324v-902q0 -173 -69 -255.5t-211 -82.5q-140 0 -207 82t-67 255v903h-324v-920z" />
<glyph unicode="V" horiz-adv-x="1398" d="M28 1456l479 -1460h354l509 1460h-318l-292 -931l-68 -242q-49 177 -106 370.5t-130.5 436t-110.5 366.5h-317z" />
<glyph unicode="W" horiz-adv-x="2027" d="M57 1456l361 -1456h297l297 1040l282 -1040h297l378 1456h-313l-225 -1039l-287 1026h-266l-286 -1020l-226 1033h-309z" />
<glyph unicode="X" horiz-adv-x="1382" d="M7 -4h335l337 508l338 -508h355l-492 740l473 720h-348l-294 -466l-310 466h-355l464 -697z" />
<glyph unicode="Y" horiz-adv-x="1353" d="M23 1456l491 -902v-554h324v556l492 900h-338l-317 -603l-317 603h-335z" />
<glyph unicode="Z" horiz-adv-x="1243" d="M103 0h1065l-8 211h-676l662 1056l-2 189h-1026l12 -212h664l-691 -1066v-178z" />
<glyph unicode="[" horiz-adv-x="823" d="M224 -251h452v185h-223v1364h223v183h-452v-1732z" />
<glyph unicode="\" horiz-adv-x="937" d="M94 1499l494 -1491h221l-490 1491h-225z" />
<glyph unicode="]" horiz-adv-x="965" d="M294 -66v-185h452v1732h-452v-183h222v-1364h-222z" />
<glyph unicode="^" horiz-adv-x="1440" d="M103 280h302l308 714l321 -714h302l-562 1176h-133z" />
<glyph unicode="_" horiz-adv-x="973" d="M0 -102v-178h973v178h-973z" />
<glyph unicode="`" horiz-adv-x="1033" d="M87 1606l331 -398h174l-180 398h-325z" />
<glyph unicode="a" horiz-adv-x="1149" d="M93 302q0 -155 91 -237t244 -82q209 0 341 139l30 -122h230v655q0 117 -33.5 204.5t-94.5 140t-140.5 77.5t-177.5 25q-234 0 -451 -114l62 -190q188 89 344 89q192 0 192 -182v-88l-170 1h-9q-94 0 -173.5 -17t-145 -53t-102.5 -98.5t-37 -147.5zM367 305 q0 88 65.5 126.5t187.5 38.5h109v-218q-87 -95 -219 -95q-60 0 -101.5 37.5t-41.5 110.5z" />
<glyph unicode="b" horiz-adv-x="1251" d="M139 0h267l10 130q43 -65 118 -107.5t179 -42.5q216 0 332.5 154.5t116.5 412.5q0 120 -26.5 220.5t-78.5 176t-135 117.5t-189 42q-210 0 -301 -185l10 219v423l-303 -20v-1540zM440 278v285q0 339 227 339q94 0 139.5 -84t45.5 -271q0 -185 -53.5 -276t-147.5 -91 q-138 0 -211 98z" />
<glyph unicode="c" horiz-adv-x="1113" d="M89 542q0 -259 146.5 -410.5t396.5 -151.5q308 0 418 252l-187 101h-12q-25 -66 -79 -104.5t-128 -38.5q-110 0 -179 90t-69 262q0 171 69 261t179 90h2q74 0 127 -38.5t78 -105.5h13l186 102q-111 252 -418 252q-250 0 -396.5 -151t-146.5 -410z" />
<glyph unicode="d" horiz-adv-x="1248" d="M92 536q0 -162 48.5 -286t149.5 -197t245 -73h2q104 0 179.5 49t119.5 132l9 -161h270v1560l-304 -20v-398l4 -161q-99 121 -271 121h-2h-2q-216 0 -332 -154t-116 -412zM399 537q0 366 213 366q129 0 200 -94v-525q-69 -103 -208 -103q-205 0 -205 356z" />
<glyph unicode="e" horiz-adv-x="1180" d="M89 541q0 -258 154.5 -409.5t409.5 -151.5q127 0 236.5 34.5t175.5 91.5l-67 164h-16q-144 -90 -294 -90q-122 0 -201 71t-91 206h676q11 57 11 127q-3 242 -117 380.5t-347 138.5q-238 0 -384 -151.5t-146 -410.5zM399 625q9 139 71.5 209.5t163.5 70.5 q97 0 144.5 -68.5t48.5 -211.5h-428z" />
<glyph unicode="f" horiz-adv-x="817" d="M45 906h158v-906h307v906h267v176h-267v77q0 89 38 124t127 35q39 0 127 -11l10 187q-114 26 -241 26q-84 0 -146.5 -16.5t-114.5 -55t-79.5 -111.5t-27.5 -178v-82l-153 -19z" />
<glyph unicode="g" horiz-adv-x="1242" d="M89 558q0 -126 25.5 -225t68 -161.5t101.5 -104t121 -58t132 -16.5q186 0 286 107l6 -81q2 -28 2 -42q0 -277 -299 -279q-134 0 -278 49h-27l-22 -202q159 -49 371 -49q248 0 391 127t143 384v1075h-292l-3 -97q-99 118 -266 118h-2q-90 0 -170.5 -33t-145.5 -98 t-103.5 -171.5t-38.5 -242.5zM397 558q0 97 17.5 166.5t49 107t68 54t81.5 16.5q69 0 113 -22t84 -69v-555q-33 -35 -87 -55.5t-113 -20.5q-103 0 -158 94t-55 284z" />
<glyph unicode="h" horiz-adv-x="1254" d="M146 0h306v613q0 138 53 213.5t156 75.5q84 0 121.5 -60t37.5 -205v-637h307v672q0 206 -89 318.5t-265 112.5q-233 0 -326 -217l6 269v405l-307 -20v-1540z" />
<glyph unicode="i" horiz-adv-x="626" d="M136 1451q0 -80 49 -127t133 -47t132.5 47t48.5 127q0 76 -49 121.5t-132 45.5q-84 0 -133 -45.5t-49 -121.5zM160 0h307v1082h-307v-1082z" />
<glyph unicode="j" horiz-adv-x="663" d="M-60 -292l97 -223l81 31q61 23 102 40t86.5 40.5t73.5 47t55.5 56.5t42.5 72t24 90t9 113v1107h-307v-1075q0 -66 -4.5 -101t-24 -67t-53.5 -52t-97 -45zM180 1451q0 -80 49 -127t133 -47t132.5 47t48.5 127q0 76 -49 121.5t-132 45.5q-84 0 -133 -45.5t-49 -121.5z" />
<glyph unicode="k" horiz-adv-x="1182" d="M146 0h307v418l69 65l334 -483h311v29l-417 578l397 455v20h-323l-376 -425l5 160v743l-307 -20v-1540z" />
<glyph unicode="l" horiz-adv-x="729" d="M144 346q0 -197 89.5 -276.5t301.5 -79.5q30 0 46 1l88 2l13 197l-120 9q-66 4 -88.5 31.5t-22.5 93.5v1236l-307 -20v-1194z" />
<glyph unicode="m" horiz-adv-x="1889" d="M139 0h306v628q7 134 59.5 204t137.5 70q82 0 118.5 -63.5t36.5 -220.5v-618h307v660q4 104 64 173t135 69q84 0 118.5 -65.5t34.5 -205.5v-631h307v682q0 200 -93 310.5t-268 110.5q-235 0 -336 -217q-20 54 -67 94t-92 57.5t-96 35.5t-69 30q-222 0 -322 -208l-19 187 h-262v-1082z" />
<glyph unicode="n" horiz-adv-x="1248" d="M141 0h307v619q0 137 54.5 210t154.5 73q85 0 121.5 -61.5t36.5 -202.5v-638h306v665q0 210 -92 324t-272 114q-233 0 -334 -208l-20 187h-262v-1082z" />
<glyph unicode="o" horiz-adv-x="1239" d="M89 544q0 -255 142 -410t389 -155q246 0 388 155t142 410q0 253 -142 406t-388 153t-388.5 -153t-142.5 -406zM397 544q0 358 223 358t223 -358q0 -180 -56.5 -272t-166.5 -92q-223 0 -223 364z" />
<glyph unicode="p" horiz-adv-x="1254" d="M141 -471h302v412l-4 159q102 -120 278 -120q213 0 329 155t116 411q0 164 -46 287.5t-144 196.5t-239 73q-119 0 -196.5 -58t-115.5 -157l-11 194h-269v-1553zM442 278v419q17 96 72 150.5t147 54.5q95 0 144.5 -84.5t49.5 -270.5q0 -199 -55.5 -283t-154.5 -84 q-129 0 -203 98z" />
<glyph unicode="q" horiz-adv-x="1244" d="M91 548q0 -170 48.5 -296t151 -199t248.5 -73h2q169 0 272 121l-4 -143v-429h302v1553h-269l-8 -155q-92 176 -299 176q-212 0 -328 -153.5t-116 -401.5zM398 548q0 354 203 354q141 0 209 -111v-519q-69 -92 -199 -92q-100 0 -156.5 84t-56.5 284z" />
<glyph unicode="r" horiz-adv-x="847" d="M134 0h307v610q0 113 78.5 181.5t197.5 68.5q17 0 25 -1l53 -5l19 226q-58 10 -119 10q-83 0 -158 -47.5t-121 -148.5l-18 188h-264v-1082z" />
<glyph unicode="s" horiz-adv-x="1001" d="M64 180q156 -200 469 -200q112 0 203.5 35.5t150.5 112t59 181.5q0 55 -8.5 93t-35.5 79t-82 77t-142 71l-141 57q-71 27 -95 52t-24 60q0 47 35 72t99 25t124 -25.5t100 -75.5h13l138 125q-114 184 -413 184q-190 0 -301.5 -84t-111.5 -229q0 -115 66 -188.5t228 -131.5 l113 -40q89 -31 119 -60t30 -69q0 -54 -35 -86t-102 -32q-180 0 -288 132h-25z" />
<glyph unicode="t" horiz-adv-x="867" d="M41 905h165v-510q0 -74 5.5 -126t21 -100.5t44.5 -79t75 -54t112.5 -34t157.5 -10.5l180 5l9 200l-144 6q-97 4 -128 42.5t-31 141.5v519h288v177h-288v327l-273 -21l-21 -304l-166 -17z" />
<glyph unicode="u" horiz-adv-x="1246" d="M127 407q0 -205 96 -316t280 -111q216 0 326 172l15 -152h264v1082h-307v-797q-78 -105 -202 -105q-88 0 -127 60t-39 200v642h-306v-675z" />
<glyph unicode="v" horiz-adv-x="1095" d="M22 1082l378 -1082h305l369 1082h-307q-18 -66 -64 -232.5t-78 -287.5t-61 -236l-228 756h-314z" />
<glyph unicode="w" horiz-adv-x="1527" d="M9 1082l268 -1086h273l226 791l186 -791h284l270 1086h-263l-149 -777l-188 777h-280l-203 -785l-141 785h-283z" />
<glyph unicode="x" horiz-adv-x="1086" d="M13 -4h291l228 328l216 -328h327l-364 550l347 536h-287l-207 -315l-208 315h-324l354 -537z" />
<glyph unicode="y" horiz-adv-x="1134" d="M-9 1082l436 -962l-202 -471l247 -90l659 1523h-285l-269 -670l-284 670h-302z" />
<glyph unicode="z" horiz-adv-x="974" d="M76 0h838l2 195h-494l475 715v172h-811l-3 -187h485l-492 -740v-155z" />
<glyph unicode="{" horiz-adv-x="931" d="M189 534q51 0 87.5 -6.5t59.5 -22t36.5 -31.5t19.5 -45.5t7.5 -53t1.5 -64.5v-324q0 -74 21 -127.5t54 -84t87.5 -48t108 -23t128.5 -5.5v171q-55 1 -84.5 6t-52.5 23.5t-31 52.5t-8 93v312q0 54 -7 93t-26.5 78t-61 64.5t-104.5 37.5q63 12 104.5 38t61 65t26.5 77.5 t7 92.5v313q0 59 8 93t31 52.5t52.5 24t84.5 6.5v171q-75 0 -128.5 -5.5t-108 -23t-87.5 -48t-54 -84t-21 -128.5v-324q0 -50 -2.5 -77t-13.5 -59.5t-33 -48.5t-62.5 -27t-100.5 -11v-193z" />
<glyph unicode="|" horiz-adv-x="723" d="M269 -439h190v1915h-190v-1915z" />
<glyph unicode="}" horiz-adv-x="931" d="M153 -130v-171q75 0 128.5 5.5t108 23t87.5 48t54 84t21 127.5v324q0 41 1.5 64.5t7.5 53t19.5 45.5t36.5 31.5t59.5 22t87.5 6.5v193q-60 0 -100.5 11t-62.5 27t-33 48.5t-13.5 59.5t-2.5 77v324q0 75 -21 128.5t-54 84t-87.5 48t-108 23t-128.5 5.5v-171 q55 -1 84.5 -6.5t52.5 -24t31 -52.5t8 -93v-313q0 -54 7 -92.5t26.5 -77.5t61 -65t104.5 -38q-63 -12 -104.5 -37.5t-61 -64.5t-26.5 -78t-7 -93v-312q0 -59 -8 -93t-31 -52.5t-52.5 -23.5t-84.5 -6z" />
<glyph unicode="~" horiz-adv-x="1192" d="M90 618l81 -142q33 63 82 104t109 41q48 0 92 -15t115 -49q78 -36 133.5 -53t116.5 -17q100 0 182 57t123 141l-78 134q-107 -137 -214 -137q-65 0 -211 67q-147 65 -250 65q-189 0 -281 -196z" />
<glyph unicode="&#xa1;" horiz-adv-x="749" d="M218 1048q0 -64 41.5 -108t106.5 -44q66 0 108 44t42 108q0 62 -42.5 107.5t-107.5 45.5q-64 0 -106 -45t-42 -108zM245 -132v-212h238v212l-68 867h-110z" />
<glyph unicode="&#xa2;" horiz-adv-x="1113" d="M89 542q0 -259 146.5 -410.5t396.5 -151.5q308 0 418 252l-187 101h-12q-25 -66 -79 -104.5t-128 -38.5q-110 0 -179 90t-69 262q0 171 69 261t179 90h2q74 0 127 -38.5t78 -105.5h13l186 102q-111 252 -418 252q-250 0 -396.5 -151t-146.5 -410zM550 -301h130l7 350 h-131zM556 1042h128l14 328h-138z" />
<glyph unicode="&#xa3;" horiz-adv-x="1197" d="M81 670h183v-453l-176 -21l11 -196h996l7 219h-527v451h328v183h-328v163q0 134 53.5 202.5t154.5 68.5q89 0 209 -71h20l100 186q-51 45 -152.5 87.5t-239.5 42.5q-456 0 -456 -559v-120h-183v-183z" />
<glyph unicode="&#xa4;" horiz-adv-x="1125" d="M46 1153l181 -177q-71 -110 -71 -238q0 -127 71 -237l-180 -176l98 -96l174 171q108 -83 247 -83q134 0 243 85l181 -174l92 99l-176 174q70 107 70 237q0 127 -71 238l178 176l-93 99l-181 -174q-105 85 -243 85q-133 0 -245 -84l-176 173zM299 738q0 116 77 198t190 82 t191.5 -82t78.5 -198t-77.5 -196.5t-192.5 -80.5q-113 0 -190 80.5t-77 196.5z" />
<glyph unicode="&#xa5;" horiz-adv-x="1353" d="M23 1456l491 -902v-554h324v556l492 900h-338l-317 -603l-317 603h-335zM207 244h912v132h-912v-132zM207 526h912v133h-912v-133z" />
<glyph unicode="&#xa6;" horiz-adv-x="733" d="M257 -341h198v708h-198v-708zM257 773h198v706h-198v-706z" />
<glyph unicode="&#xa7;" horiz-adv-x="1038" d="M154 1214q0 -76 34 -134.5t106 -109.5q-130 -103 -130 -220q0 -95 60 -155t199 -116q137 -54 183 -90t46 -80q0 -129 -155 -129q-76 0 -165.5 28t-155.5 65v-210q74 -38 161.5 -60.5t165.5 -22.5q85 0 153 19.5t121 60.5t81.5 110.5t28.5 163.5q0 133 -98 217 q105 95 105 227q0 96 -53.5 160.5t-188.5 117.5q-114 46 -167 75t-67 49t-14 52q0 98 153 98q132 0 252 -64l55 167q-74 46 -161.5 70.5t-167.5 24.5q-58 0 -111 -9.5t-103 -33t-86.5 -58.5t-58.5 -90t-22 -123zM363 811q0 31 15.5 56t37.5 36q1 -1 148 -61 q135 -56 135 -133q0 -50 -35 -85q-99 40 -113 44q-117 49 -152.5 75t-35.5 68z" />
<glyph unicode="&#xa8;" horiz-adv-x="1053" d="M127 1387q0 -66 38 -105t105 -39q66 0 103.5 39t37.5 105t-37.5 106t-103.5 40q-67 0 -105 -40t-38 -106zM619 1387q0 -65 38.5 -104.5t106.5 -39.5q67 0 104 39t37 105t-37.5 106t-103.5 40q-68 0 -106.5 -40t-38.5 -106z" />
<glyph unicode="&#xa9;" horiz-adv-x="1768" d="M75 728q0 -167 62.5 -312.5t168.5 -245.5t247.5 -157.5t297.5 -57.5t298.5 57.5t249 157.5t170 245.5t63.5 312.5t-63.5 312.5t-170 245.5t-249 157.5t-298.5 57.5q-209 0 -385.5 -97t-283.5 -275.5t-107 -400.5zM227 728q0 137 50.5 256.5t135 202t199 129.5t239.5 47 t239.5 -47t199.5 -129.5t135.5 -202t50.5 -256.5t-50.5 -256.5t-135.5 -202t-199.5 -130t-239.5 -47.5t-239.5 47.5t-199 130t-135 202t-50.5 256.5zM395 734q0 -114 40 -208t106.5 -154t152 -92.5t178.5 -32.5q156 0 284 80l-44 115q-112 -63 -228 -63q-138 0 -227 94 t-89 263q0 165 89 259t224 94q115 0 227 -65l47 116q-129 82 -285 82q-93 0 -178 -33t-151.5 -93t-106 -154t-39.5 -208z" />
<glyph unicode="&#xaa;" horiz-adv-x="1147" d="M145 869q0 -134 79 -205t211 -71q181 0 295 120l26 -105h198v566q0 101 -28.5 177t-81.5 121t-121.5 67t-153.5 22q-202 0 -390 -99l54 -164q162 77 297 77q166 0 166 -158v-76l-147 1h-8q-81 0 -149.5 -14.5t-125.5 -45.5t-89 -85t-32 -128zM382 872q0 76 56.5 109 t162.5 33h94v-188q-75 -82 -189 -82q-52 0 -88 32.5t-36 95.5z" />
<glyph unicode="&#xab;" horiz-adv-x="1033" d="M51 566l309 -432h180l-257 435l262 433h-182zM462 566l308 -432h180l-256 435l260 433h-182z" />
<glyph unicode="&#xac;" horiz-adv-x="1210" d="M96 647h802v-397h190v591h-992v-194z" />
<glyph unicode="&#xad;" horiz-adv-x="1006" d="M172 210h654v207h-654v-207z" />
<glyph unicode="&#xae;" horiz-adv-x="1887" d="M134 729q0 -167 62.5 -312.5t168 -246t246.5 -158t296 -57.5q154 0 295.5 57.5t247 158t168 246t62.5 312.5t-62.5 312t-168 245t-247 157.5t-295.5 57.5q-155 0 -296 -57.5t-246.5 -157.5t-168 -245t-62.5 -312zM289 729q0 182 85 328.5t226 226.5t307 80t307.5 -80 t226.5 -226.5t85 -328.5q0 -137 -50 -257t-134 -202.5t-197.5 -130t-237.5 -47.5t-237 47.5t-197 130t-134 202.5t-50 257zM610 314h156v397h114l223 -397h181q-236 401 -242 408q107 25 153 80t46 150q0 137 -84.5 189t-256.5 52h-290v-879zM765 821v249h106h7 q40 0 59.5 -0.5t47 -2.5t39.5 -7t27 -13.5t20.5 -22t10 -33t4.5 -45.5q0 -73 -45 -99t-155 -26h-121z" />
<glyph unicode="&#xaf;" horiz-adv-x="1070" d="M191 1284h675v137h-675v-137z" />
<glyph unicode="&#xb0;" horiz-adv-x="842" d="M113 1205q0 -128 85.5 -217.5t226.5 -89.5q140 0 225.5 90.5t85.5 216.5q0 127 -86 212.5t-225 85.5q-140 0 -226 -85.5t-86 -212.5zM267 1204q0 73 46.5 117.5t112.5 44.5q63 0 109 -44.5t46 -117.5q0 -77 -45.5 -122t-110.5 -45q-66 0 -112 45t-46 122z" />
<glyph unicode="&#xb1;" horiz-adv-x="1136" d="M105 0h936v179h-936v-179zM109 644h360v-349h205v349h358v200h-358v354h-205v-354h-360v-200z" />
<glyph unicode="&#xb2;" horiz-adv-x="828" d="M149 1354l76 -119q33 45 85.5 70t112.5 25q49 0 85.5 -36t36.5 -93q0 -42 -87 -163q-104 -116 -190 -187t-113 -99v-142h545l16 143h-304q59 54 95 81.5t85 76.5q58 60 91.5 136t33.5 158q0 128 -82.5 204t-192.5 76q-197 0 -293 -131z" />
<glyph unicode="&#xb3;" horiz-adv-x="881" d="M153 670q119 -77 279 -77q91 0 164 28t120 89.5t47 147.5q0 77 -42.5 135.5t-114.5 73.5q72 14 106 66t36 122q0 78 -40 131t-101 74.5t-139 21.5q-176 0 -306 -88l56 -111q102 65 219 65q69 0 110.5 -27.5t41.5 -83.5q0 -55 -32 -82t-125 -27h-120v-130l118 1h6 q86 0 128.5 -36t42.5 -98q0 -67 -51.5 -102t-129.5 -35q-129 0 -214 72z" />
<glyph unicode="&#xb4;" horiz-adv-x="776" d="M364 1208h175l327 398h-320z" />
<glyph unicode="&#xb5;" horiz-adv-x="1230" d="M127 -316h306v301q33 -5 70 -5q216 0 326 172l15 -152h264v1082h-307v-797q-78 -105 -202 -105q-88 0 -127 60t-39 200v642h-306v-1398z" />
<glyph unicode="&#xb6;" horiz-adv-x="1216" d="M109 1072q0 -74 24.5 -138.5t73 -116t129 -81.5t183.5 -30v-946h164v1552h178v-1552h164v1696h-395q-144 0 -245.5 -25.5t-161.5 -76t-87 -119.5t-27 -163z" />
<glyph unicode="&#xb7;" horiz-adv-x="633" d="M159 651q0 -73 42 -111.5t110 -38.5t110 38.5t42 111.5q0 74 -42 113.5t-110 39.5t-110 -39.5t-42 -113.5z" />
<glyph unicode="&#xb8;" horiz-adv-x="737" d="M253 -378q82 -36 167 -36q110 0 182 56.5t72 152.5q0 80 -46 124t-122 44q-53 0 -114 -23v-66q22 3 41 3q92 0 92 -75q0 -41 -33 -66.5t-90 -25.5q-50 0 -110 22z" />
<glyph unicode="&#xb9;" horiz-adv-x="865" d="M230 1199q12 0 158 75v-542h-144v-155h479v155h-146v735h-145q-25 -15 -96 -55.5t-106 -57.5v-155z" />
<glyph unicode="&#xba;" horiz-adv-x="965" d="M116 1123q0 -178 96 -292.5t268 -114.5q164 0 264 116.5t100 290.5q0 182 -94.5 296t-269.5 114q-171 0 -267.5 -115.5t-96.5 -294.5zM309 1123q0 247 171 247q87 0 132.5 -63t45.5 -187q0 -241 -178 -241q-171 0 -171 244z" />
<glyph unicode="&#xbb;" horiz-adv-x="1033" d="M66 134h183l312 438l-309 430h-177l254 -436zM467 134h179l315 438l-309 430h-175l250 -436z" />
<glyph unicode="&#xbc;" horiz-adv-x="1644" d="M105 1230q6 1 74 30.5t95 43.5v-548h-154v-158h466v158h-136v743h-145q-25 -16 -96.5 -56t-103.5 -56v-157zM319 0h201l972 1499h-195zM989 181h376v-181h161v181h103l10 137h-113v553h-171l-366 -552v-138zM1167 318l198 337v-337h-198z" />
<glyph unicode="&#xbd;" horiz-adv-x="1905" d="M142 1250q7 1 71 30.5t93 44.5v-591h-155v-136h486v136h-142v766h-145q-53 -37 -208 -113v-137zM393 0h188l965 1500h-188zM1176 717l97 -104q40 52 99 82.5t119 30.5q54 0 90 -30.5t36 -84.5q0 -84 -103 -186l-294 -288l24 -137h547l6 142h-352l184 164q175 155 175 303 q0 116 -77.5 194t-230.5 78q-102 0 -185.5 -46.5t-134.5 -117.5z" />
<glyph unicode="&#xbe;" horiz-adv-x="1727" d="M102 652q123 -72 268 -72q139 0 233 70t94 201q0 75 -41.5 133t-115.5 75q72 14 104.5 68t34.5 121q0 114 -79 170t-199 56q-165 0 -292 -83l56 -116q107 60 209 60q64 0 102 -27.5t38 -80.5q0 -54 -32 -80t-118 -26h-113v-137l112 2h4q167 0 167 -131 q0 -67 -47.5 -100.5t-121.5 -33.5q-115 0 -205 64zM415 0h200l971 1499h-193zM1081 181h375v-181h163v181h102l10 137h-113v553h-172l-365 -552v-138zM1259 318l198 337v-337h-198z" />
<glyph unicode="&#xbf;" horiz-adv-x="1029" d="M72 47q0 -110 56.5 -190.5t145.5 -118.5t197 -38q97 0 198 33t168 96l-71 212q-134 -77 -247 -77q-84 0 -124.5 44t-40.5 121q0 45 19 92t50.5 97.5t66.5 107t73 142.5t64 181l-79 20q-34 -64 -80 -121.5t-89.5 -99.5t-89.5 -84t-84 -83.5t-68.5 -88.5t-47.5 -109 t-17 -136zM440 1102q0 -66 38.5 -106.5t106.5 -40.5q69 0 109 40.5t40 106.5t-40 107t-109 41q-68 0 -106.5 -40.5t-38.5 -107.5z" />
<glyph unicode="&#xc0;" horiz-adv-x="1493" d="M56 0h326l129 389h475l134 -389h326l-497 1456h-393zM308 1986l331 -398h174l-180 398h-325zM574 591l178 597l176 -597h-354z" />
<glyph unicode="&#xc1;" horiz-adv-x="1493" d="M56 0h326l129 389h475l134 -389h326l-497 1456h-393zM574 591l178 597l176 -597h-354zM663 1588h175l327 398h-320z" />
<glyph unicode="&#xc2;" horiz-adv-x="1493" d="M56 0h326l129 389h475l134 -389h326l-497 1456h-393zM410 1663h237l106 214l106 -214h237l-207 382h-272zM574 591l178 597l176 -597h-354z" />
<glyph unicode="&#xc3;" horiz-adv-x="1493" d="M56 0h326l129 389h475l134 -389h326l-497 1456h-393zM421 1647h127q21 99 74 99q27 0 75 -25t104.5 -49.5t103.5 -24.5q65 0 108.5 39t60.5 93.5t17 119.5h-128q-19 -83 -62 -83q-22 0 -65 21t-101 42t-116 21q-70 0 -116 -38t-64 -92.5t-18 -122.5zM574 591l178 597 l176 -597h-354z" />
<glyph unicode="&#xc4;" horiz-adv-x="1493" d="M56 0h326l129 389h475l134 -389h326l-497 1456h-393zM359 1761q0 -66 38 -105t105 -39q66 0 103.5 39t37.5 105t-37.5 106t-103.5 40q-67 0 -105 -40t-38 -106zM574 591l178 597l176 -597h-354zM851 1761q0 -65 38.5 -104.5t106.5 -39.5q67 0 104 39t37 105t-37.5 106 t-103.5 40q-68 0 -106.5 -40t-38.5 -106z" />
<glyph unicode="&#xc5;" horiz-adv-x="1493" d="M56 0h326l129 389h475l134 -389h326l-497 1456h-393zM540 1785q0 -87 59.5 -149.5t156.5 -62.5t158 62.5t61 149.5t-60 148.5t-159 61.5q-97 0 -156.5 -61t-59.5 -149zM574 591l178 597l176 -597h-354zM665 1784q0 42 25 73.5t66 31.5q43 0 69.5 -31.5t26.5 -73.5 q0 -44 -26 -74.5t-70 -30.5t-67.5 29.5t-23.5 75.5z" />
<glyph unicode="&#xc6;" horiz-adv-x="1913" d="M-20 0h322l219 389h388v-389h899l10 218h-651v419h582v213h-582v394h614l16 212h-957zM613 583l296 538v-538h-296z" />
<glyph unicode="&#xc7;" horiz-adv-x="1549" d="M127 732q0 -360 187.5 -556t521.5 -196q113 0 209.5 26t162.5 68.5t116 99.5t78 114.5t41 118.5l-237 95h-25q-29 -123 -116.5 -209t-223.5 -86q-172 0 -271.5 128t-99.5 397t98.5 393t289.5 124q66 0 122 -26t95 -70t65 -94.5t40 -105.5h24l238 94q-13 61 -42 119 t-80 115t-117.5 99.5t-162 69t-206.5 26.5q-332 0 -519.5 -195.5t-187.5 -548.5zM633 -398q82 -36 167 -36q110 0 182 56.5t72 152.5q0 80 -46 124t-122 44q-53 0 -114 -23v-66q22 3 41 3q92 0 92 -75q0 -41 -33 -66.5t-90 -25.5q-50 0 -110 22z" />
<glyph unicode="&#xc8;" horiz-adv-x="1317" d="M181 0h1029l7 226h-712v411h647v221h-647v378h677l16 220h-1017v-1456zM195 1986l331 -398h174l-180 398h-325z" />
<glyph unicode="&#xc9;" horiz-adv-x="1317" d="M181 0h1029l7 226h-712v411h647v221h-647v378h677l16 220h-1017v-1456zM550 1588h175l327 398h-320z" />
<glyph unicode="&#xca;" horiz-adv-x="1317" d="M181 0h1029l7 226h-712v411h647v221h-647v378h677l16 220h-1017v-1456zM297 1663h237l106 214l106 -214h237l-207 382h-272z" />
<glyph unicode="&#xcb;" horiz-adv-x="1317" d="M181 0h1029l7 226h-712v411h647v221h-647v378h677l16 220h-1017v-1456zM246 1761q0 -66 38 -105t105 -39q66 0 103.5 39t37.5 105t-37.5 106t-103.5 40q-67 0 -105 -40t-38 -106zM738 1761q0 -65 38.5 -104.5t106.5 -39.5q67 0 104 39t37 105t-37.5 106t-103.5 40 q-68 0 -106.5 -40t-38.5 -106z" />
<glyph unicode="&#xcc;" horiz-adv-x="994" d="M69 1986l331 -398h174l-180 398h-325zM141 -4h742v178h-206v1104h206v178h-742v-178h212v-1104h-212v-178z" />
<glyph unicode="&#xcd;" horiz-adv-x="994" d="M141 -4h742v178h-206v1104h206v178h-742v-178h212v-1104h-212v-178zM424 1588h175l327 398h-320z" />
<glyph unicode="&#xce;" horiz-adv-x="994" d="M141 -4h742v178h-206v1104h206v178h-742v-178h212v-1104h-212v-178zM171 1663h237l106 214l106 -214h237l-207 382h-272z" />
<glyph unicode="&#xcf;" horiz-adv-x="994" d="M120 1761q0 -66 38 -105t105 -39q66 0 103.5 39t37.5 105t-37.5 106t-103.5 40q-67 0 -105 -40t-38 -106zM141 -4h742v178h-206v1104h206v178h-742v-178h212v-1104h-212v-178zM612 1761q0 -65 38.5 -104.5t106.5 -39.5q67 0 104 39t37 105t-37.5 106t-103.5 40 q-68 0 -106.5 -40t-38.5 -106z" />
<glyph unicode="&#xd0;" horiz-adv-x="1538" d="M50 658h630v199h-630v-199zM181 7q174 -18 318 -18q205 0 362 36.5t260.5 101.5t169 162t93 210.5t27.5 254.5q0 150 -27.5 262t-89 199t-162 141.5t-246 82t-342.5 27.5q-162 0 -363 -18v-1441zM505 222v1021q68 4 97 4q90 0 162.5 -13.5t123.5 -36t88.5 -59t60.5 -76 t36.5 -93t18 -104.5t4.5 -116q0 -100 -15 -179t-51 -146t-94 -111.5t-146.5 -69t-204.5 -24.5q-38 0 -80 3z" />
<glyph unicode="&#xd1;" horiz-adv-x="1627" d="M181 0h308v593l-17 388l629 -981h321v1456h-301v-624l15 -389l-646 1013h-309v-1456zM429 1647h127q21 99 74 99q27 0 75 -25t104.5 -49.5t103.5 -24.5q65 0 108.5 39t60.5 93.5t17 119.5h-128q-19 -83 -62 -83q-22 0 -65 21t-101 42t-116 21q-70 0 -116 -38t-64 -92.5 t-18 -122.5z" />
<glyph unicode="&#xd2;" horiz-adv-x="1661" d="M128 722q0 -354 180.5 -548.5t517.5 -194.5q338 0 516.5 194.5t178.5 549.5q0 356 -180.5 554.5t-514.5 198.5q-336 0 -517 -198.5t-181 -555.5zM376 1986l331 -398h174l-180 398h-325zM472 721q0 246 89.5 382t264.5 136q176 0 263.5 -135.5t87.5 -382.5 q0 -243 -87 -374.5t-264 -131.5q-178 0 -266 131.5t-88 374.5z" />
<glyph unicode="&#xd3;" horiz-adv-x="1661" d="M128 722q0 -354 180.5 -548.5t517.5 -194.5q338 0 516.5 194.5t178.5 549.5q0 356 -180.5 554.5t-514.5 198.5q-336 0 -517 -198.5t-181 -555.5zM472 721q0 246 89.5 382t264.5 136q176 0 263.5 -135.5t87.5 -382.5q0 -243 -87 -374.5t-264 -131.5q-178 0 -266 131.5 t-88 374.5zM731 1588h175l327 398h-320z" />
<glyph unicode="&#xd4;" horiz-adv-x="1661" d="M128 722q0 -354 180.5 -548.5t517.5 -194.5q338 0 516.5 194.5t178.5 549.5q0 356 -180.5 554.5t-514.5 198.5q-336 0 -517 -198.5t-181 -555.5zM472 721q0 246 89.5 382t264.5 136q176 0 263.5 -135.5t87.5 -382.5q0 -243 -87 -374.5t-264 -131.5q-178 0 -266 131.5 t-88 374.5zM479 1663h237l106 214l106 -214h237l-207 382h-272z" />
<glyph unicode="&#xd5;" horiz-adv-x="1661" d="M128 722q0 -354 180.5 -548.5t517.5 -194.5q338 0 516.5 194.5t178.5 549.5q0 356 -180.5 554.5t-514.5 198.5q-336 0 -517 -198.5t-181 -555.5zM472 721q0 246 89.5 382t264.5 136q176 0 263.5 -135.5t87.5 -382.5q0 -243 -87 -374.5t-264 -131.5q-178 0 -266 131.5 t-88 374.5zM489 1647h127q21 99 74 99q27 0 75 -25t104.5 -49.5t103.5 -24.5q65 0 108.5 39t60.5 93.5t17 119.5h-128q-19 -83 -62 -83q-22 0 -65 21t-101 42t-116 21q-70 0 -116 -38t-64 -92.5t-18 -122.5z" />
<glyph unicode="&#xd6;" horiz-adv-x="1661" d="M128 722q0 -354 180.5 -548.5t517.5 -194.5q338 0 516.5 194.5t178.5 549.5q0 356 -180.5 554.5t-514.5 198.5q-336 0 -517 -198.5t-181 -555.5zM428 1761q0 -66 38 -105t105 -39q66 0 103.5 39t37.5 105t-37.5 106t-103.5 40q-67 0 -105 -40t-38 -106zM472 721 q0 246 89.5 382t264.5 136q176 0 263.5 -135.5t87.5 -382.5q0 -243 -87 -374.5t-264 -131.5q-178 0 -266 131.5t-88 374.5zM920 1761q0 -65 38.5 -104.5t106.5 -39.5q67 0 104 39t37 105t-37.5 106t-103.5 40q-68 0 -106.5 -40t-38.5 -106z" />
<glyph unicode="&#xd7;" horiz-adv-x="994" d="M96 273l129 -141l276 285l272 -283l131 141q-211 221 -270 283l268 286l-131 136l-270 -283l-274 284l-129 -137l268 -286z" />
<glyph unicode="&#xd8;" horiz-adv-x="1651" d="M128 722q0 -256 94.5 -430t277.5 -253l-93 -247l128 -47l96 253q89 -19 195 -19q338 0 516.5 194.5t178.5 549.5q0 248 -89.5 422.5t-260.5 258.5l100 263l-134 52l-101 -268q-94 25 -210 25q-336 0 -517 -198.5t-181 -555.5zM472 721q0 246 89.5 382t264.5 136 q67 0 122 -20l-345 -910q-131 117 -131 412zM721 230l344 898q112 -127 112 -407q0 -243 -87 -374.5t-264 -131.5q-57 0 -105 15z" />
<glyph unicode="&#xd9;" horiz-adv-x="1519" d="M151 536q0 -263 151.5 -409.5t446.5 -146.5q294 0 449 147.5t155 407.5v921h-324v-902q0 -173 -69 -255.5t-211 -82.5q-140 0 -207 82t-67 255v903h-324v-920zM313 1986l331 -398h174l-180 398h-325z" />
<glyph unicode="&#xda;" horiz-adv-x="1519" d="M151 536q0 -263 151.5 -409.5t446.5 -146.5q294 0 449 147.5t155 407.5v921h-324v-902q0 -173 -69 -255.5t-211 -82.5q-140 0 -207 82t-67 255v903h-324v-920zM668 1588h175l327 398h-320z" />
<glyph unicode="&#xdb;" horiz-adv-x="1519" d="M151 536q0 -263 151.5 -409.5t446.5 -146.5q294 0 449 147.5t155 407.5v921h-324v-902q0 -173 -69 -255.5t-211 -82.5q-140 0 -207 82t-67 255v903h-324v-920zM415 1663h237l106 214l106 -214h237l-207 382h-272z" />
<glyph unicode="&#xdc;" horiz-adv-x="1519" d="M151 536q0 -263 151.5 -409.5t446.5 -146.5q294 0 449 147.5t155 407.5v921h-324v-902q0 -173 -69 -255.5t-211 -82.5q-140 0 -207 82t-67 255v903h-324v-920zM364 1761q0 -66 38 -105t105 -39q66 0 103.5 39t37.5 105t-37.5 106t-103.5 40q-67 0 -105 -40t-38 -106z M856 1761q0 -65 38.5 -104.5t106.5 -39.5q67 0 104 39t37 105t-37.5 106t-103.5 40q-68 0 -106.5 -40t-38.5 -106z" />
<glyph unicode="&#xdd;" horiz-adv-x="1316" d="M23 1456l491 -902v-554h324v556l492 900h-338l-317 -603l-317 603h-335zM570 1588h175l327 398h-320z" />
<glyph unicode="&#xde;" horiz-adv-x="1379" d="M176 0h325v359h151q172 0 293 30.5t193.5 92t105 147t32.5 203.5q0 221 -153 317.5t-504 96.5h-118v223h-325v-1469zM501 572v465h133h5q127 0 199 -26t98 -71.5t26 -121.5q0 -61 -15.5 -103.5t-54 -76t-108 -50t-172.5 -16.5h-111z" />
<glyph unicode="&#xdf;" horiz-adv-x="1321" d="M134 0h306v991q0 288 216 288q77 0 119 -33.5t42 -101.5q0 -48 -18.5 -91t-44.5 -75.5t-52 -64.5t-44.5 -74t-18.5 -89q0 -45 22.5 -85.5t56.5 -68.5t74 -60t74 -60t56.5 -68t22.5 -85q0 -63 -35.5 -96.5t-99.5 -33.5q-53 0 -110 16t-92 36l-60 -192q173 -73 346 -73 q184 0 278 88t94 250q0 74 -28.5 138t-70.5 105.5t-92 77.5t-92 58t-70.5 43t-28.5 37q0 15 22 38t53.5 52.5t63.5 66.5t54 93t22 119q0 112 -61.5 192t-164 118.5t-234.5 38.5q-229 0 -367 -127.5t-138 -346.5v-1021z" />
<glyph unicode="&#xe0;" horiz-adv-x="1147" d="M93 302q0 -155 91 -237t244 -82q209 0 341 139l30 -122h230v655q0 117 -33.5 204.5t-94.5 140t-140.5 77.5t-177.5 25q-234 0 -451 -114l62 -190q188 89 344 89q192 0 192 -182v-88l-170 1h-9q-94 0 -173.5 -17t-145 -53t-102.5 -98.5t-37 -147.5zM102 1611l331 -398h174 l-180 398h-325zM367 305q0 88 65.5 126.5t187.5 38.5h109v-218q-87 -95 -219 -95q-60 0 -101.5 37.5t-41.5 110.5z" />
<glyph unicode="&#xe1;" horiz-adv-x="1147" d="M93 302q0 -155 91 -237t244 -82q209 0 341 139l30 -122h230v655q0 117 -33.5 204.5t-94.5 140t-140.5 77.5t-177.5 25q-234 0 -451 -114l62 -190q188 89 344 89q192 0 192 -182v-88l-170 1h-9q-94 0 -173.5 -17t-145 -53t-102.5 -98.5t-37 -147.5zM367 305 q0 88 65.5 126.5t187.5 38.5h109v-218q-87 -95 -219 -95q-60 0 -101.5 37.5t-41.5 110.5zM457 1213h175l327 398h-320z" />
<glyph unicode="&#xe2;" horiz-adv-x="1147" d="M93 302q0 -155 91 -237t244 -82q209 0 341 139l30 -122h230v655q0 117 -33.5 204.5t-94.5 140t-140.5 77.5t-177.5 25q-234 0 -451 -114l62 -190q188 89 344 89q192 0 192 -182v-88l-170 1h-9q-94 0 -173.5 -17t-145 -53t-102.5 -98.5t-37 -147.5zM205 1288h237l106 214 l106 -214h237l-207 382h-272zM367 305q0 88 65.5 126.5t187.5 38.5h109v-218q-87 -95 -219 -95q-60 0 -101.5 37.5t-41.5 110.5z" />
<glyph unicode="&#xe3;" horiz-adv-x="1147" d="M93 302q0 -155 91 -237t244 -82q209 0 341 139l30 -122h230v655q0 117 -33.5 204.5t-94.5 140t-140.5 77.5t-177.5 25q-234 0 -451 -114l62 -190q188 89 344 89q192 0 192 -182v-88l-170 1h-9q-94 0 -173.5 -17t-145 -53t-102.5 -98.5t-37 -147.5zM215 1272h127 q21 99 74 99q27 0 75 -25t104.5 -49.5t103.5 -24.5q65 0 108.5 39t60.5 93.5t17 119.5h-128q-19 -83 -62 -83q-22 0 -65 21t-101 42t-116 21q-70 0 -116 -38t-64 -92.5t-18 -122.5zM367 305q0 88 65.5 126.5t187.5 38.5h109v-218q-87 -95 -219 -95q-60 0 -101.5 37.5 t-41.5 110.5z" />
<glyph unicode="&#xe4;" horiz-adv-x="1147" d="M93 302q0 -155 91 -237t244 -82q209 0 341 139l30 -122h230v655q0 117 -33.5 204.5t-94.5 140t-140.5 77.5t-177.5 25q-234 0 -451 -114l62 -190q188 89 344 89q192 0 192 -182v-88l-170 1h-9q-94 0 -173.5 -17t-145 -53t-102.5 -98.5t-37 -147.5zM154 1386 q0 -66 38 -105t105 -39q66 0 103.5 39t37.5 105t-37.5 106t-103.5 40q-67 0 -105 -40t-38 -106zM367 305q0 88 65.5 126.5t187.5 38.5h109v-218q-87 -95 -219 -95q-60 0 -101.5 37.5t-41.5 110.5zM646 1386q0 -65 38.5 -104.5t106.5 -39.5q67 0 104 39t37 105t-37.5 106 t-103.5 40q-68 0 -106.5 -40t-38.5 -106z" />
<glyph unicode="&#xe5;" horiz-adv-x="1147" d="M93 302q0 -155 91 -237t244 -82q209 0 341 139l30 -122h230v655q0 117 -33.5 204.5t-94.5 140t-140.5 77.5t-177.5 25q-234 0 -451 -114l62 -190q188 89 344 89q192 0 192 -182v-88l-170 1h-9q-94 0 -173.5 -17t-145 -53t-102.5 -98.5t-37 -147.5zM334 1410 q0 -87 59.5 -149.5t156.5 -62.5t158 62.5t61 149.5t-60 148.5t-159 61.5q-97 0 -156.5 -61t-59.5 -149zM367 305q0 88 65.5 126.5t187.5 38.5h109v-218q-87 -95 -219 -95q-60 0 -101.5 37.5t-41.5 110.5zM459 1409q0 42 25 73.5t66 31.5q43 0 69.5 -31.5t26.5 -73.5 q0 -44 -26 -74.5t-70 -30.5t-67.5 29.5t-23.5 75.5z" />
<glyph unicode="&#xe6;" horiz-adv-x="1724" d="M66 302q0 -156 91 -236.5t248 -82.5q143 0 254 44t174 132q61 -86 153.5 -132.5t243.5 -46.5q127 0 237 34.5t175 91.5l-56 170q-157 -96 -321 -96q-44 0 -79 6t-71 23t-62 45t-45 76t-25 112q31 -1 90 -1q108 0 190 7.5t157 27t122.5 52t75.5 84.5t28 123 q0 67 -23.5 129.5t-70.5 117t-129 87.5t-187 33q-242 0 -355 -179q-28 87 -113 132.5t-212 45.5q-226 0 -457 -125l68 -181q190 91 347 91q202 0 202 -182v-81q-45 6 -190 6q-95 0 -175.5 -18.5t-145.5 -56t-102 -102t-37 -150.5zM341 305q0 175 244 175q98 0 133 -5 q0 -21 9.5 -87t18.5 -84q-15 -60 -83 -104t-172 -44q-61 0 -105.5 37.5t-44.5 111.5zM985 613q4 76 27 134.5t59 93t79 51.5t92 17q104 0 148.5 -42.5t44.5 -108.5q0 -27 -6 -46.5t-27 -39.5t-57.5 -32.5t-101 -20.5t-154.5 -8q-28 0 -104 2z" />
<glyph unicode="&#xe7;" horiz-adv-x="1125" d="M89 542q0 -259 146.5 -410.5t396.5 -151.5q308 0 418 252l-187 101h-12q-25 -66 -79 -104.5t-128 -38.5q-110 0 -179 90t-69 262q0 171 69 261t179 90h2q74 0 127 -38.5t78 -105.5h13l186 102q-111 252 -418 252q-250 0 -396.5 -151t-146.5 -410zM398 -397 q82 -36 167 -36q110 0 182 56.5t72 152.5q0 80 -46 124t-122 44q-53 0 -114 -23v-66q22 3 41 3q92 0 92 -75q0 -41 -33 -66.5t-90 -25.5q-50 0 -110 22z" />
<glyph unicode="&#xe8;" horiz-adv-x="1192" d="M89 541q0 -258 154.5 -409.5t409.5 -151.5q127 0 236.5 34.5t175.5 91.5l-67 164h-16q-144 -90 -294 -90q-122 0 -201 71t-91 206h676q11 57 11 127q-3 242 -117 380.5t-347 138.5q-238 0 -384 -151.5t-146 -410.5zM172 1612l331 -398h174l-180 398h-325zM399 625 q9 139 71.5 209.5t163.5 70.5q97 0 144.5 -68.5t48.5 -211.5h-428z" />
<glyph unicode="&#xe9;" horiz-adv-x="1192" d="M89 541q0 -258 154.5 -409.5t409.5 -151.5q127 0 236.5 34.5t175.5 91.5l-67 164h-16q-144 -90 -294 -90q-122 0 -201 71t-91 206h676q11 57 11 127q-3 242 -117 380.5t-347 138.5q-238 0 -384 -151.5t-146 -410.5zM399 625q9 139 71.5 209.5t163.5 70.5 q97 0 144.5 -68.5t48.5 -211.5h-428zM528 1214h175l327 398h-320z" />
<glyph unicode="&#xea;" horiz-adv-x="1192" d="M89 541q0 -258 154.5 -409.5t409.5 -151.5q127 0 236.5 34.5t175.5 91.5l-67 164h-16q-144 -90 -294 -90q-122 0 -201 71t-91 206h676q11 57 11 127q-3 242 -117 380.5t-347 138.5q-238 0 -384 -151.5t-146 -410.5zM275 1289h237l106 214l106 -214h237l-207 382h-272z M399 625q9 139 71.5 209.5t163.5 70.5q97 0 144.5 -68.5t48.5 -211.5h-428z" />
<glyph unicode="&#xeb;" horiz-adv-x="1192" d="M89 541q0 -258 154.5 -409.5t409.5 -151.5q127 0 236.5 34.5t175.5 91.5l-67 164h-16q-144 -90 -294 -90q-122 0 -201 71t-91 206h676q11 57 11 127q-3 242 -117 380.5t-347 138.5q-238 0 -384 -151.5t-146 -410.5zM224 1387q0 -66 38 -105t105 -39q66 0 103.5 39 t37.5 105t-37.5 106t-103.5 40q-67 0 -105 -40t-38 -106zM399 625q9 139 71.5 209.5t163.5 70.5q97 0 144.5 -68.5t48.5 -211.5h-428zM716 1387q0 -65 38.5 -104.5t106.5 -39.5q67 0 104 39t37 105t-37.5 106t-103.5 40q-68 0 -106.5 -40t-38.5 -106z" />
<glyph unicode="&#xec;" horiz-adv-x="592" d="M-142 1612l331 -398h174l-180 398h-325zM148 0h307v1082h-307v-1082z" />
<glyph unicode="&#xed;" horiz-adv-x="592" d="M148 0h307v1082h-307v-1082zM214 1214h175l327 398h-320z" />
<glyph unicode="&#xee;" horiz-adv-x="592" d="M-39 1289h237l106 214l106 -214h237l-207 382h-272zM148 0h307v1082h-307v-1082z" />
<glyph unicode="&#xef;" horiz-adv-x="592" d="M-90 1387q0 -66 38 -105t105 -39q66 0 103.5 39t37.5 105t-37.5 106t-103.5 40q-67 0 -105 -40t-38 -106zM148 0h307v1082h-307v-1082zM402 1387q0 -65 38.5 -104.5t106.5 -39.5q67 0 104 39t37 105t-37.5 106t-103.5 40q-68 0 -106.5 -40t-38.5 -106z" />
<glyph unicode="&#xf0;" horiz-adv-x="1180" d="M70 479q0 -219 144.5 -360.5t380.5 -141.5q241 0 379.5 133t138.5 363q-1 212 -99 381q-14 24 -31 50t-30 45.5t-37.5 50.5t-35.5 45.5t-42 51t-40 47t-47 53.5t-45 52l213 86l-65 172l-270 -110l-117 119h-289l206 -205l-182 -76l62 -170l245 98q52 -52 116 -126.5 t97 -120.5q-93 40 -168 40q-216 0 -350 -131.5t-134 -345.5zM305 480q0 138 75.5 218.5t214.5 80.5q138 0 217 -84t79 -217q0 -140 -76 -221.5t-214 -81.5q-139 0 -217.5 86t-78.5 219z" />
<glyph unicode="&#xf1;" horiz-adv-x="1248" d="M141 0h307v619q0 137 54.5 210t154.5 73q85 0 121.5 -61.5t36.5 -202.5v-638h306v665q0 210 -92 324t-272 114q-233 0 -334 -208l-20 187h-262v-1082zM355 1267h127q21 99 74 99q27 0 75 -25t104.5 -49.5t103.5 -24.5q65 0 108.5 39t60.5 93.5t17 119.5h-128 q-19 -83 -62 -83q-22 0 -65 21t-101 42t-116 21q-70 0 -116 -38t-64 -92.5t-18 -122.5z" />
<glyph unicode="&#xf2;" horiz-adv-x="1247" d="M89 544q0 -255 142 -410t389 -155q246 0 388 155t142 410q0 253 -142 406t-388 153t-388.5 -153t-142.5 -406zM179 1612l331 -398h174l-180 398h-325zM397 544q0 358 223 358t223 -358q0 -180 -56.5 -272t-166.5 -92q-223 0 -223 364z" />
<glyph unicode="&#xf3;" horiz-adv-x="1247" d="M89 544q0 -255 142 -410t389 -155q246 0 388 155t142 410q0 253 -142 406t-388 153t-388.5 -153t-142.5 -406zM397 544q0 358 223 358t223 -358q0 -180 -56.5 -272t-166.5 -92q-223 0 -223 364zM535 1214h175l327 398h-320z" />
<glyph unicode="&#xf4;" horiz-adv-x="1247" d="M89 544q0 -255 142 -410t389 -155q246 0 388 155t142 410q0 253 -142 406t-388 153t-388.5 -153t-142.5 -406zM282 1289h237l106 214l106 -214h237l-207 382h-272zM397 544q0 358 223 358t223 -358q0 -180 -56.5 -272t-166.5 -92q-223 0 -223 364z" />
<glyph unicode="&#xf5;" horiz-adv-x="1247" d="M89 544q0 -255 142 -410t389 -155q246 0 388 155t142 410q0 253 -142 406t-388 153t-388.5 -153t-142.5 -406zM293 1273h127q21 99 74 99q27 0 75 -25t104.5 -49.5t103.5 -24.5q65 0 108.5 39t60.5 93.5t17 119.5h-128q-19 -83 -62 -83q-22 0 -65 21t-101 42t-116 21 q-70 0 -116 -38t-64 -92.5t-18 -122.5zM397 544q0 358 223 358t223 -358q0 -180 -56.5 -272t-166.5 -92q-223 0 -223 364z" />
<glyph unicode="&#xf6;" horiz-adv-x="1247" d="M89 544q0 -255 142 -410t389 -155q246 0 388 155t142 410q0 253 -142 406t-388 153t-388.5 -153t-142.5 -406zM231 1387q0 -66 38 -105t105 -39q66 0 103.5 39t37.5 105t-37.5 106t-103.5 40q-67 0 -105 -40t-38 -106zM397 544q0 358 223 358t223 -358q0 -180 -56.5 -272 t-166.5 -92q-223 0 -223 364zM723 1387q0 -65 38.5 -104.5t106.5 -39.5q67 0 104 39t37 105t-37.5 106t-103.5 40q-68 0 -106.5 -40t-38.5 -106z" />
<glyph unicode="&#xf7;" horiz-adv-x="1244" d="M88 494h1048v193h-1048v-193zM481 22h263v272h-263v-272zM481 887h271v260h-271v-260z" />
<glyph unicode="&#xf8;" horiz-adv-x="1239" d="M89 544q0 -255 142 -410t389 -155q246 0 388 155t142 410q0 253 -142 406t-388 153t-388.5 -153t-142.5 -406zM220 -125l74 -48l738 1380l-80 48zM397 544q0 358 223 358t223 -358q0 -180 -56.5 -272t-166.5 -92q-223 0 -223 364z" />
<glyph unicode="&#xf9;" horiz-adv-x="1248" d="M127 407q0 -205 96 -316t280 -111q216 0 326 172l15 -152h264v1082h-307v-797q-78 -105 -202 -105q-88 0 -127 60t-39 200v642h-306v-675zM178 1612l331 -398h174l-180 398h-325z" />
<glyph unicode="&#xfa;" horiz-adv-x="1248" d="M127 407q0 -205 96 -316t280 -111q216 0 326 172l15 -152h264v1082h-307v-797q-78 -105 -202 -105q-88 0 -127 60t-39 200v642h-306v-675zM534 1214h175l327 398h-320z" />
<glyph unicode="&#xfb;" horiz-adv-x="1248" d="M127 407q0 -205 96 -316t280 -111q216 0 326 172l15 -152h264v1082h-307v-797q-78 -105 -202 -105q-88 0 -127 60t-39 200v642h-306v-675zM281 1289h237l106 214l106 -214h237l-207 382h-272z" />
<glyph unicode="&#xfc;" horiz-adv-x="1248" d="M127 407q0 -205 96 -316t280 -111q216 0 326 172l15 -152h264v1082h-307v-797q-78 -105 -202 -105q-88 0 -127 60t-39 200v642h-306v-675zM230 1387q0 -66 38 -105t105 -39q66 0 103.5 39t37.5 105t-37.5 106t-103.5 40q-67 0 -105 -40t-38 -106zM722 1387 q0 -65 38.5 -104.5t106.5 -39.5q67 0 104 39t37 105t-37.5 106t-103.5 40q-68 0 -106.5 -40t-38.5 -106z" />
<glyph unicode="&#xfd;" horiz-adv-x="1122" d="M-9 1082l436 -962l-202 -471l247 -90l659 1523h-285l-269 -670l-284 670h-302zM461 1214h175l327 398h-320z" />
<glyph unicode="&#xfe;" horiz-adv-x="1141" d="M164 -437h301v944h-301v-944zM165 0h267l10 130q43 -65 118 -107.5t179 -42.5q216 0 332.5 154.5t116.5 412.5q0 120 -26.5 220.5t-78.5 176t-135 117.5t-189 42q-210 0 -301 -185l10 219v423l-303 -20v-1540zM466 278v285q0 339 227 339q94 0 139.5 -84t45.5 -271 q0 -185 -53.5 -276t-147.5 -91q-138 0 -211 98z" />
<glyph unicode="&#xff;" horiz-adv-x="1122" d="M-9 1082l436 -962l-202 -471l247 -90l659 1523h-285l-269 -670l-284 670h-302zM157 1387q0 -66 38 -105t105 -39q66 0 103.5 39t37.5 105t-37.5 106t-103.5 40q-67 0 -105 -40t-38 -106zM649 1387q0 -65 38.5 -104.5t106.5 -39.5q67 0 104 39t37 105t-37.5 106t-103.5 40 q-68 0 -106.5 -40t-38.5 -106z" />
<glyph unicode="&#x152;" horiz-adv-x="2269" d="M92 726q0 -355 173.5 -549t495.5 -194q246 0 381 114v-97h981l6 218h-722v423h657v213h-657v390h689l15 212h-969v-92q-137 117 -381 117q-321 0 -495 -196.5t-174 -558.5zM377 725q0 251 95.5 389.5t288.5 138.5q194 0 287 -138.5t93 -389.5q0 -245 -92.5 -379.5 t-287.5 -134.5q-196 0 -290 135t-94 379z" />
<glyph unicode="&#x153;" horiz-adv-x="1863" d="M75 543q0 -255 135.5 -407.5t366.5 -152.5q117 0 220.5 58t158.5 145q63 -91 177 -147t243 -56q120 0 220.5 35t152.5 85l-66 163h-13q-39 -36 -115.5 -63t-159.5 -27q-43 0 -82.5 7.5t-79.5 27t-70.5 50t-52.5 81t-29 114.5h676q8 51 8 123q-3 240 -115 380t-321 140 q-109 0 -211.5 -59.5t-158.5 -148.5q-53 89 -158 148.5t-224 59.5q-232 0 -367 -151t-135 -405zM324 544q0 362 253 362q252 0 252 -362q0 -368 -252 -368q-253 0 -253 368zM1085 618q4 75 27 133t59 93t79 52.5t91 17.5q96 0 147.5 -69.5t58.5 -226.5h-462z" />
<glyph unicode="&#x178;" horiz-adv-x="1316" d="M23 1456l491 -902v-554h324v556l492 900h-338l-317 -603l-317 603h-335zM267 1761q0 -66 38 -105t105 -39q66 0 103.5 39t37.5 105t-37.5 106t-103.5 40q-67 0 -105 -40t-38 -106zM759 1761q0 -65 38.5 -104.5t106.5 -39.5q67 0 104 39t37 105t-37.5 106t-103.5 40 q-68 0 -106.5 -40t-38.5 -106z" />
<glyph unicode="&#x2c6;" horiz-adv-x="918" d="M100 1289h237l106 214l106 -214h237l-207 382h-272z" />
<glyph unicode="&#x2dc;" horiz-adv-x="977" d="M155 1267h127q21 99 74 99q27 0 75 -25t104.5 -49.5t103.5 -24.5q65 0 108.5 39t60.5 93.5t17 119.5h-128q-19 -83 -62 -83q-22 0 -65 21t-101 42t-116 21q-70 0 -116 -38t-64 -92.5t-18 -122.5z" />
<glyph unicode="&#x2000;" horiz-adv-x="1022" />
<glyph unicode="&#x2001;" horiz-adv-x="2045" />
<glyph unicode="&#x2002;" horiz-adv-x="1022" />
<glyph unicode="&#x2003;" horiz-adv-x="2045" />
<glyph unicode="&#x2004;" horiz-adv-x="681" />
<glyph unicode="&#x2005;" horiz-adv-x="511" />
<glyph unicode="&#x2006;" horiz-adv-x="340" />
<glyph unicode="&#x2007;" horiz-adv-x="340" />
<glyph unicode="&#x2008;" horiz-adv-x="255" />
<glyph unicode="&#x2009;" horiz-adv-x="409" />
<glyph unicode="&#x200a;" horiz-adv-x="113" />
<glyph unicode="&#x2010;" horiz-adv-x="931" d="M152 453h630v199h-630v-199z" />
<glyph unicode="&#x2011;" horiz-adv-x="931" d="M152 453h630v199h-630v-199z" />
<glyph unicode="&#x2012;" horiz-adv-x="931" d="M152 453h630v199h-630v-199z" />
<glyph unicode="&#x2013;" horiz-adv-x="1215" d="M117 465h981v197h-981v-197z" />
<glyph unicode="&#x2014;" horiz-adv-x="2206" d="M60 469h2086v190h-2086v-190z" />
<glyph unicode="&#x2018;" horiz-adv-x="529" d="M128 1029h267l39 510h-187z" />
<glyph unicode="&#x2019;" horiz-adv-x="529" d="M128 1029h187l119 510h-267z" />
<glyph unicode="&#x201a;" horiz-adv-x="505" d="M102 -360h184l121 507h-263z" />
<glyph unicode="&#x201c;" horiz-adv-x="954" d="M128 1029h267l39 510h-187zM532 1029h267l39 510h-187z" />
<glyph unicode="&#x201d;" horiz-adv-x="954" d="M128 1029h187l119 510h-267zM532 1029h187l119 510h-267z" />
<glyph unicode="&#x201e;" horiz-adv-x="904" d="M106 -360h183l118 507h-260zM488 -360h183l120 507h-263z" />
<glyph unicode="&#x2022;" horiz-adv-x="949" d="M121 707q0 -149 97.5 -245t243.5 -96t247 98.5t101 247.5t-97.5 245t-243.5 96t-247 -98.5t-101 -247.5z" />
<glyph unicode="&#x2026;" horiz-adv-x="1517" d="M155 142q0 -73 42 -111.5t110 -38.5t110 38.5t42 111.5q0 74 -42 113.5t-110 39.5t-110 -39.5t-42 -113.5zM660 142q0 -73 42 -111.5t110 -38.5t110 38.5t42 111.5q0 74 -42 113.5t-110 39.5t-110 -39.5t-42 -113.5zM1156 142q0 -73 42 -111.5t110 -38.5t110 38.5 t42 111.5q0 74 -42 113.5t-110 39.5t-110 -39.5t-42 -113.5z" />
<glyph unicode="&#x202f;" horiz-adv-x="409" />
<glyph unicode="&#x2039;" horiz-adv-x="833" d="M175 584l275 -419h190l-263 418l269 430h-189z" />
<glyph unicode="&#x203a;" horiz-adv-x="766" d="M139 165h190l283 416l-273 413h-189l258 -411z" />
<glyph unicode="&#x205f;" horiz-adv-x="511" />
<glyph unicode="&#x20ac;" horiz-adv-x="1391" d="M-78 527h883l1 141h-557v138h557l3 142h-884l-2 -142h174v-138h-175v-141zM78 732q0 -360 187.5 -556t521.5 -196q113 0 209.5 26t162.5 68.5t116 99.5t78 114.5t41 118.5l-237 95h-25q-29 -123 -116.5 -209t-223.5 -86q-172 0 -271.5 128t-99.5 397t98.5 393t289.5 124 q66 0 122 -26t95 -70t65 -94.5t40 -105.5h24l238 94q-13 61 -42 119t-80 115t-117.5 99.5t-162 69t-206.5 26.5q-332 0 -519.5 -195.5t-187.5 -548.5z" />
<glyph unicode="&#x2122;" horiz-adv-x="2095" d="M84 1309h272v-788h189v788h272v147h-733v-147zM926 521h177l15 621l258 -533h102l259 530l15 -618h176l-19 935h-191l-290 -603l-291 603h-192z" />
<glyph unicode="&#x25fc;" horiz-adv-x="1080" d="M0 0v1080h1080v-1080h-1080z" />
</font>
</defs>
</svg>
